/* XPM */
static char *result[] = {
/* columns rows colors chars-per-pixel */
"32 32 37 1 ",
"  c #447D2A",
". c #497E2E",
"X c #497E30",
"o c #458525",
"O c #4B8227",
"+ c #468C24",
"@ c #4A8D25",
"# c #478228",
"$ c #4A842D",
"% c #478C28",
"& c #4B8C2B",
"* c #479125",
"= c #4C9325",
"- c #4E9A25",
"; c #4D9328",
": c #4E9929",
"> c #519525",
", c #599724",
"< c #539C25",
"1 c #599D25",
"2 c #539529",
"3 c #539C28",
"4 c #4D8433",
"5 c #518C33",
"6 c #538C3B",
"7 c #539431",
"8 c #55A225",
"9 c #5AA425",
"0 c #5CAA25",
"q c #55A228",
"w c #58A528",
"e c #5BAB29",
"r c #5FB326",
"t c #5FB228",
"y c #60A724",
"u c #62AC24",
"i c #61B327",
/* pixels */
"@08:-@<u*<1109-:>t>:=ou>*9,8<>&.",
"<:8-*2qu<=>*w9@*;8<+==9y+<:-8>$4",
"3*r<==21-*>*-8<;:><>==>8@>>-8-34",
"8888<-<-089<+88<1<8<-<><919=-8<4",
"8q:<<<q:>1>0<q9=0-=9*8-:1>q93q@ ",
"-8--3=99=<->9>>=3-*>>@8><-=9<<*#",
"@<w-@>3e<:@=8=*>@--+=@<<=;+19*=@",
"><<:<@2q<*==--=*>>-*@*=8=:>:q@==",
"9>>88<:@>@<oo*<<,*<--<*<>>8<1-<<",
"q9=-;>q+O$4X#*>=u<*-+91>-=99><><",
"<8=-33<>O64.X@<=<-+-=>y<>1<9>1<*",
"+--+@>:;XX665===*-*+>+89=>>9-=>+",
"*<w**==$X4662<*@<<-+==*9@>=,0===",
"<>><-<:&77&5;9<<<*,*-<>1<<<>9899",
"8<-<=>0<112wq<<:9-<8*9999>q99q39",
"-9<q<-99,99yw19-8<-8:<9<11y919q3",
"@-8><@-u-11>81==+8<*>=u9=<>8>@>@",
"+=0>@@-y<=>*--*++<8+@=1y*>=@o4 #",
"w*<1,-*>81<=*--=**,<><*8<<<+@$#+",
"w0<1--8=88=8--<=9889*1<80>88<@#=",
"<t;<,-<-><*8<><=88-,<<<-<>-1,<><",
"-ww*>@>8>=+=9=>>*8>>=+9<>*oq9--<",
"q<w-*>>8>+*=--@=,,-*>=>8@@=<e=:=",
"t38->>**,><@=8>,>*-*-*+,><>=9><<",
"ri-<--9>---y<1>-9<--=99><-911>>>",
"<0*=:=01>1<y<<1=9:+><89<><99<9=-",
"*9q*=@<u,<>,8-<>@-%-<@09=>=8-<>-",
"-=<*+>:8-@@11-@*3<-+==<9=>>,8@*-",
"r-0<*-=<1>>*<8>>:>>*==@9<,>>9-<<",
"iw-<=>9111>8>8-<9@<<*8999<<<<->9",
"w0*1>=9<11>9><1*9>><+w9,9,8<><>-",
"+89=<*>u=>1101>*:8>--%y>;y199>--"
};
