/* XPM */
static char *result[] = {
/* columns rows colors chars-per-pixel */
"64 64 141 2 ",
"   c #0A0302",
".  c #250D04",
"X  c #2F1106",
"o  c #2F1206",
"O  c #28180D",
"+  c #2B190E",
"@  c #341507",
"#  c #361608",
"$  c #371609",
"%  c #381709",
"&  c #3A1708",
"*  c #3B1708",
"=  c #3B1808",
"-  c #39180A",
";  c #3A180A",
":  c #3C1808",
">  c #3C1909",
",  c #3D1909",
"<  c #3D1A09",
"1  c #3E1A09",
"2  c #3E1A0A",
"3  c #3F1A0A",
"4  c #3F1B0A",
"5  c #3F1B0B",
"6  c #342215",
"7  c #352417",
"8  c #3B271B",
"9  c #3C281B",
"0  c #3D281B",
"q  c #3C281C",
"w  c #3D281C",
"e  c #3E281C",
"r  c #401B0A",
"t  c #401B0B",
"y  c #431D0C",
"u  c #441E0D",
"i  c #4F2312",
"p  c #5F2C16",
"a  c #612D17",
"s  c #68321A",
"d  c #6A321A",
"f  c #6C341B",
"g  c #6D341B",
"h  c #6E351B",
"j  c #6D341C",
"k  c #70361B",
"l  c #70361C",
"z  c #71361C",
"x  c #71361D",
"c  c #71371D",
"v  c #72371D",
"b  c #73371D",
"n  c #72381D",
"m  c #73381D",
"M  c #73381E",
"N  c #74381D",
"B  c #74391D",
"V  c #74381E",
"C  c #74391E",
"Z  c #75391E",
"A  c #76391E",
"S  c #773A1F",
"D  c #793B1F",
"F  c #7A3B1F",
"G  c #7B3B1F",
"H  c #443023",
"J  c #453123",
"K  c #7B3C20",
"L  c #813F21",
"P  c #844123",
"I  c #864223",
"U  c #844124",
"Y  c #844224",
"T  c #854224",
"R  c #874325",
"E  c #884324",
"W  c #884325",
"Q  c #894425",
"!  c #8A4425",
"~  c #894426",
"^  c #8A4426",
"/  c #8B4426",
"(  c #8B4526",
")  c #8E4627",
"_  c #8F4627",
"`  c #8F4727",
"'  c #904728",
"]  c #914828",
"[  c #944A29",
"{  c #944A2A",
"}  c #974C2A",
"|  c #974C2B",
" . c #984C2A",
".. c #984D2A",
"X. c #984C2B",
"o. c #984D2B",
"O. c #9B4E2A",
"+. c #9B4E2B",
"@. c #9A4E2C",
"#. c #9B4E2C",
"$. c #9D4F2D",
"%. c #9F502D",
"&. c #9F512D",
"*. c #9F512E",
"=. c #A1522E",
"-. c #A2522E",
";. c #A3522E",
":. c #A3532E",
">. c #A2532F",
",. c #A3532F",
"<. c #A4532F",
"1. c #A3542F",
"2. c #A5542F",
"3. c #A6552F",
"4. c #A55430",
"5. c #A45530",
"6. c #A75530",
"7. c #A85630",
"8. c #A85631",
"9. c #A95731",
"0. c #AD5932",
"q. c #AC5933",
"w. c #AD5933",
"e. c #AE5933",
"r. c #AE5A33",
"t. c #AF5A33",
"y. c #B05B34",
"u. c #B15B34",
"i. c #B05B35",
"p. c #B15C35",
"a. c #B35C35",
"s. c #B35D35",
"d. c #B45D36",
"f. c #B55E36",
"g. c #B76038",
"h. c #B86038",
"j. c #BA6139",
"k. c #BD633A",
"l. c #BE633A",
"z. c #C1653B",
"x. c None",
/* pixels */
"x.l.z.z.z.z.z.z.z.z.z.z.z.z.z.z.z.z.z.z.z.z.z.z.z.z.z.z.z.u.x.x.x.x.k.z.z.z.z.z.z.z.z.z.z.z.z.z.z.z.z.z.z.z.z.z.z.z.z.z.z.z.s.x.",
"6.w.s.a.s.s.a.a.a.a.s.a.a.a.a.s.a.a.a.s.s.s.a.s.a.a.a.s.s.,.` H J 3.0.a.a.a.a.a.a.a.s.a.a.a.a.s.a.a.s.a.s.a.a.s.a.a.s.a.a.s.>.I ",
"+.:.9.9.9.9.9.9.9.9.9.9.9.9.9.9.9.9.9.9.9.9.9.9.9.9.9.9.9.@.R 9 q O.-.9.9.9.9.9.9.9.9.9.9.9.9.9.9.9.9.9.9.9.9.9.9.9.9.9.9.9. .D ",
"+.:.9.9.9.9.9.9.9.9.9.9.9.9.9.9.9.9.9.9.9.9.9.9.9.9.9.9.9.@.W 9 9 O.-.9.9.9.9.9.9.9.9.9.9.9.9.9.9.9.9.9.9.9.9.9.9.9.9.9.9.9.} F ",
"+.:.9.9.9.9.9.9.9.9.9.9.9.9.9.9.9.9.9.9.9.9.9.9.9.9.9.9.9.@.W 9 9 O.-.9.9.9.9.9.9.9.9.9.9.9.9.9.9.9.9.9.9.9.9.9.9.9.9.9.9.9.} F ",
"+.:.9.9.9.9.9.9.9.9.9.9.9.9.9.9.9.9.9.9.9.9.9.9.9.9.9.9.9.@.W 9 9 O.-.9.9.9.9.9.9.9.9.9.9.9.9.9.9.9.9.9.9.9.9.9.9.9.9.9.9.9.} F ",
"+.:.9.9.9.9.9.9.9.9.9.9.9.9.9.9.9.9.9.9.9.9.9.9.9.9.9.9.9.#.W 9 9 +.-.9.9.9.9.9.9.9.9.9.9.9.9.9.9.9.9.9.9.9.9.9.9.9.9.9.9.9. .F ",
"O.:.9.9.9.9.9.9.9.9.9.9.9.9.9.9.9.9.9.9.9.9.9.9.9.9.9.9.9.#.W 9 9 O.-.9.9.9.9.9.9.9.9.9.9.9.9.9.9.9.9.9.9.9.9.9.9.9.9.9.9.9.} F ",
"O.:.9.9.9.9.9.9.9.9.9.9.9.9.9.9.9.9.9.9.9.9.9.9.9.9.9.9.9.#.W 9 9 O.-.9.9.9.9.9.9.9.9.9.9.9.9.9.9.9.9.9.9.9.9.9.9.9.9.9.9.9. .F ",
"+.:.9.9.9.9.9.9.9.9.9.9.9.9.9.9.9.9.9.9.9.9.9.9.9.9.9.9.9.#.Q 9 9 O.-.9.9.9.9.9.9.9.9.9.9.9.9.9.9.9.9.9.9.9.9.9.9.9.9.9.9.9.} F ",
"+.:.9.9.9.9.9.9.9.9.9.9.9.9.9.9.9.9.9.9.9.9.9.9.9.9.9.9.9.#.Q 9 9 O.-.9.9.9.9.9.9.9.9.9.9.9.9.9.9.9.9.9.9.9.9.9.9.9.9.9.9.9. .F ",
"O.:.9.9.9.9.9.9.9.9.9.9.9.9.9.9.9.9.9.9.9.9.9.9.9.9.9.9.9.#.Q 9 9 O.-.9.9.9.9.9.9.9.9.9.9.9.9.9.9.9.9.9.9.9.9.9.9.9.9.9.9.9. .F ",
"+.:.9.9.9.9.9.9.9.9.9.9.9.9.9.9.9.9.9.9.9.9.9.9.9.9.9.9.9.#.Q 9 9 O.-.9.9.9.9.9.9.9.9.9.9.9.9.9.9.9.9.9.9.9.9.9.9.9.9.9.9.9.} F ",
"+.:.9.9.9.9.9.9.9.9.9.9.9.9.9.9.9.9.9.9.9.9.9.9.9.9.9.9.9.#.~ 9 9 O.-.9.9.9.9.9.9.9.9.9.9.9.9.9.9.9.9.9.9.9.9.9.9.9.9.9.9.9. .F ",
"O.:.9.9.9.9.9.9.9.9.9.9.9.9.9.9.9.9.9.9.9.9.9.9.9.9.9.9.9.#.^ 9 9 O.-.9.9.9.9.9.9.9.9.9.9.9.9.9.9.9.9.9.9.9.9.9.9.9.9.9.9.9. .F ",
"+.:.9.9.9.9.9.9.9.9.9.9.9.9.9.9.9.9.9.9.9.9.9.9.9.9.9.9.9.#.^ 9 9 O.-.9.9.9.9.9.9.9.9.9.9.9.9.9.9.9.9.9.9.9.9.9.9.9.9.9.9.9. .F ",
"+.:.9.9.9.9.9.9.9.9.9.9.9.9.9.9.9.9.9.9.9.9.9.9.9.9.9.9.9.#.^ 9 9 +.-.9.9.9.9.9.9.9.9.9.9.9.9.9.9.9.9.9.9.9.9.9.9.9.9.9.9.9. .F ",
"O.:.9.9.9.9.9.9.9.9.9.9.9.9.9.9.9.9.9.9.9.9.9.9.9.9.9.9.9.#./ 9 9 O.-.9.9.9.9.9.9.9.9.9.9.9.9.9.9.9.9.9.9.9.9.9.9.9.9.9.9.9. .F ",
"k l c c v v v v v v v v v v v v v v v v v v v n v m m m m l j 9 9 h l m m m m m m m N M N V V B C C C C C C C C Z Z Z Z Z Z g a ",
"x.> & & & & & & & * * = = = = = = = = = = = = : > > > > > u 9 9 9 9 5 , , , < < < < 1 2 2 2 2 2 3 3 3 3 4 4 r r r t t t t t y x.",
"x.6 9 9 9 9 9 9 9 9 9 9 9 9 9 9 9 9 9 9 9 9 9 9 9 9 9 9 9 9 9 9 9 9 9 9 9 9 9 9 9 9 9 9 9 9 9 9 9 9 9 9 9 9 9 9 9 9 9 9 9 9 O x.",
"x.7 9 9 9 9 9 9 9 9 9 9 9 9 9 9 9 9 9 9 9 9 9 9 9 9 9 9 9 9 9 9 9 9 9 9 9 9 9 9 9 9 9 9 9 9 9 9 9 9 9 9 9 9 9 9 9 9 9 9 9 9 + x.",
"x.k.z.z.z.z.z.z.z.z.z.z.z.p.e 9 9 0 g.z.z.z.z.z.z.z.z.z.z.z.z.z.z.z.z.z.z.z.z.z.z.z.z.z.z.q.0 9 9 w j.z.z.z.z.z.z.z.z.z.z.z.s.x.",
"7.t.d.d.d.d.d.d.d.d.d.d.d.8.[ 9 9 1.e.d.d.d.d.d.d.d.d.d.d.d.d.d.d.d.d.d.d.d.d.d.d.d.d.d.d.-.( 9 9 4.r.d.d.d.d.d.d.d.d.d.d.d.<.E ",
"O.:.9.9.9.9.9.9.9.9.9.9.9.%.' 9 9 O.-.9.9.9.9.9.9.9.9.9.9.9.9.9.9.9.9.9.9.9.9.9.9.9.9.9.9.} P 9 9 O.:.9.9.9.9.9.9.9.9.9.9.9. .F ",
"+.:.9.9.9.9.9.9.9.9.9.9.9.&.' 9 9 O.-.9.9.9.9.9.9.9.9.9.9.9.9.9.9.9.9.9.9.9.9.9.9.9.9.9.9.} P 9 9 +.:.9.9.9.9.9.9.9.9.9.9.9. .F ",
"O.:.9.9.9.9.9.9.9.9.9.9.9.%.' 9 9 O.=.9.9.9.9.9.9.9.9.9.9.9.9.9.9.9.9.9.9.9.9.9.9.9.9.9.9.| P 9 9 O.:.9.9.9.9.9.9.9.9.9.9.9. .F ",
"O.:.9.9.9.9.9.9.9.9.9.9.9.&.' 9 9 O.-.9.9.9.9.9.9.9.9.9.9.9.9.9.9.9.9.9.9.9.9.9.9.9.9.9.9.X.P 9 9 O.:.9.9.9.9.9.9.9.9.9.9.9. .F ",
"+.:.9.9.9.9.9.9.9.9.9.9.9.%.' 9 9 O.=.9.9.9.9.9.9.9.9.9.9.9.9.9.9.9.9.9.9.9.9.9.9.9.9.9.9.o.P 9 9 O.:.9.9.9.9.9.9.9.9.9.9.9. .F ",
"O.:.9.9.9.9.9.9.9.9.9.9.9.&.' 9 9 O.=.9.9.9.9.9.9.9.9.9.9.9.9.9.9.9.9.9.9.9.9.9.9.9.9.9.9.o.P 9 9 O.:.9.9.9.9.9.9.9.9.9.9.9. .F ",
"O.:.9.9.9.9.9.9.9.9.9.9.9.&.' 9 9 O.=.9.9.9.9.9.9.9.9.9.9.9.9.9.9.9.9.9.9.9.9.9.9.9.9.9.9.o.U 9 9 O.:.9.9.9.9.9.9.9.9.9.9.9. .F ",
"+.:.9.9.9.9.9.9.9.9.9.9.9.&.] 9 q O.=.9.9.9.9.9.9.9.9.9.9.9.9.9.9.9.9.9.9.9.9.9.9.9.9.9.9.o.U 9 9 O.:.9.9.9.9.9.9.9.9.9.9.9. .F ",
"O.:.9.9.9.9.9.9.9.9.9.9.9.&.] 9 9 O.-.9.9.9.9.9.9.9.9.9.9.9.9.9.9.9.9.9.9.9.9.9.9.9.9.9.9.o.Y 9 9 O.:.9.9.9.9.9.9.9.9.9.9.9. .F ",
"O.:.9.9.9.9.9.9.9.9.9.9.9.&.] 9 9 O.-.9.9.9.9.9.9.9.9.9.9.9.9.9.9.9.9.9.9.9.9.9.9.9.9.9.9.o.T 9 9 O.:.9.9.9.9.9.9.9.9.9.9.9. .F ",
"+.:.9.9.9.9.9.9.9.9.9.9.9.&.] 9 9 O.=.9.9.9.9.9.9.9.9.9.9.9.9.9.9.9.9.9.9.9.9.9.9.9.9.9.9.o.T 9 9 O.:.9.9.9.9.9.9.9.9.9.9.9. .F ",
"+.:.9.9.9.9.9.9.9.9.9.9.9.&.] 9 9 O.-.9.9.9.9.9.9.9.9.9.9.9.9.9.9.9.9.9.9.9.9.9.9.9.9.9.9.o.T 9 9 +.:.9.9.9.9.9.9.9.9.9.9.9. .F ",
"+.:.9.9.9.9.9.9.9.9.9.9.9.&.] 9 9 O.-.9.9.9.9.9.9.9.9.9.9.9.9.9.9.9.9.9.9.9.9.9.9.9.9.9.9.o.T 9 9 O.;.9.9.9.9.9.9.9.9.9.9.9. .F ",
"+.:.9.9.9.9.9.9.9.9.9.9.9.*.] 9 9 O.-.9.9.9.9.9.9.9.9.9.9.9.9.9.9.9.9.9.9.9.9.9.9.9.9.9.9.o.T 9 9 +.:.9.9.9.9.9.9.9.9.9.9.9. .F ",
"O.:.9.9.9.9.9.9.9.9.9.9.9.*.] 9 9 +.=.9.9.9.9.9.9.9.9.9.9.9.9.9.9.9.9.9.9.9.9.9.9.9.9.9.9.o.T 9 9 O.:.9.9.9.9.9.9.9.9.9.9.9. .F ",
"+.:.9.9.9.9.9.9.9.9.9.9.9.*.] 9 9 O.-.9.9.9.9.9.9.9.9.9.9.9.9.9.9.9.9.9.9.9.9.9.9.9.9.9.9.o.T 9 9 O.:.9.9.9.9.9.9.9.9.9.9.9. .G ",
"b c c c c c c c c c c c c x x 9 9 c z c c c c c c c c c c c c c c c c c c c c c c c c c c f s 9 9 c c c c c c c c c c c c c d p ",
"x.# o o o o o o o o o o o ; 9 9 9 9 % o o o o o o o o o o o o o o o o o o o o o o o o o o - 9 9 9 9 $ o o o o o o o o o o o @ x.",
"x.6 9 9 9 9 9 9 9 9 9 9 9 9 9 9 9 9 9 9 9 9 9 9 9 9 9 9 9 9 9 9 9 9 9 9 9 9 9 9 9 9 9 9 9 9 9 9 9 9 9 9 9 9 9 9 9 9 9 9 9 9 O x.",
"x.7 9 9 9 9 9 9 9 9 9 9 9 9 9 9 9 9 9 9 9 9 9 9 9 9 9 9 9 9 9 9 9 9 9 9 9 9 9 9 9 9 9 9 9 9 9 9 9 9 9 9 9 9 9 9 9 9 9 9 9 9 + x.",
"x.l.z.z.z.z.z.z.z.z.z.z.z.z.z.z.z.z.z.z.z.z.z.z.z.z.z.z.z.i.w 9 9 0 h.z.z.z.z.z.z.z.z.z.z.z.z.z.z.z.z.z.z.z.z.z.z.z.z.z.z.z.s.x.",
"9.y.f.f.f.f.f.f.f.f.f.f.f.f.f.f.f.f.f.f.f.f.f.f.f.f.f.f.f.8.{ 9 9 5.t.f.f.f.f.f.f.f.f.f.f.f.f.f.f.f.f.f.f.f.f.f.f.f.f.f.f.f.2.! ",
"+.:.9.9.9.9.9.9.9.9.9.9.9.9.9.9.9.9.9.9.9.9.9.9.9.9.9.9.9.$.) 9 9 O.-.9.9.9.9.9.9.9.9.9.9.9.9.9.9.9.9.9.9.9.9.9.9.9.9.9.9.9.o.G ",
"O.:.9.9.9.9.9.9.9.9.9.9.9.9.9.9.9.9.9.9.9.9.9.9.9.9.9.9.9.$.) 9 9 O.-.9.9.9.9.9.9.9.9.9.9.9.9.9.9.9.9.9.9.9.9.9.9.9.9.9.9.9. .G ",
"+.:.9.9.9.9.9.9.9.9.9.9.9.9.9.9.9.9.9.9.9.9.9.9.9.9.9.9.9.$.) 9 9 O.-.9.9.9.9.9.9.9.9.9.9.9.9.9.9.9.9.9.9.9.9.9.9.9.9.9.9.9. .G ",
"O.:.9.9.9.9.9.9.9.9.9.9.9.9.9.9.9.9.9.9.9.9.9.9.9.9.9.9.9.$.) 9 9 O.-.9.9.9.9.9.9.9.9.9.9.9.9.9.9.9.9.9.9.9.9.9.9.9.9.9.9.9. .G ",
"+.:.9.9.9.9.9.9.9.9.9.9.9.9.9.9.9.9.9.9.9.9.9.9.9.9.9.9.9.$.) 9 9 O.-.9.9.9.9.9.9.9.9.9.9.9.9.9.9.9.9.9.9.9.9.9.9.9.9.9.9.9...G ",
"+.:.9.9.9.9.9.9.9.9.9.9.9.9.9.9.9.9.9.9.9.9.9.9.9.9.9.9.9.$.) 9 9 O.-.9.9.9.9.9.9.9.9.9.9.9.9.9.9.9.9.9.9.9.9.9.9.9.9.9.9.9. .G ",
"O.:.9.9.9.9.9.9.9.9.9.9.9.9.9.9.9.9.9.9.9.9.9.9.9.9.9.9.9.$.) 9 9 +.-.9.9.9.9.9.9.9.9.9.9.9.9.9.9.9.9.9.9.9.9.9.9.9.9.9.9.9.X.G ",
"O.:.9.9.9.9.9.9.9.9.9.9.9.9.9.9.9.9.9.9.9.9.9.9.9.9.9.9.9.$.) 9 9 O.-.9.9.9.9.9.9.9.9.9.9.9.9.9.9.9.9.9.9.9.9.9.9.9.9.9.9.9. .G ",
"O.:.9.9.9.9.9.9.9.9.9.9.9.9.9.9.9.9.9.9.9.9.9.9.9.9.9.9.9.$.) 9 9 O.-.9.9.9.9.9.9.9.9.9.9.9.9.9.9.9.9.9.9.9.9.9.9.9.9.9.9.9. .G ",
"O.:.9.9.9.9.9.9.9.9.9.9.9.9.9.9.9.9.9.9.9.9.9.9.9.9.9.9.9.$._ 9 9 O.-.9.9.9.9.9.9.9.9.9.9.9.9.9.9.9.9.9.9.9.9.9.9.9.9.9.9.9. .G ",
"O.:.9.9.9.9.9.9.9.9.9.9.9.9.9.9.9.9.9.9.9.9.9.9.9.9.9.9.9.$._ 9 9 O.-.9.9.9.9.9.9.9.9.9.9.9.9.9.9.9.9.9.9.9.9.9.9.9.9.9.9.9. .G ",
"+.:.9.9.9.9.9.9.9.9.9.9.9.9.9.9.9.9.9.9.9.9.9.9.9.9.9.9.9.$._ 9 9 O.-.9.9.9.9.9.9.9.9.9.9.9.9.9.9.9.9.9.9.9.9.9.9.9.9.9.9.9...G ",
"O.:.9.9.9.9.9.9.9.9.9.9.9.9.9.9.9.9.9.9.9.9.9.9.9.9.9.9.9.$._ 9 9 O.-.9.9.9.9.9.9.9.9.9.9.9.9.9.9.9.9.9.9.9.9.9.9.9.9.9.9.9. .G ",
"+.:.9.9.9.9.9.9.9.9.9.9.9.9.9.9.9.9.9.9.9.9.9.9.9.9.9.9.9.$._ 9 9 +.-.9.9.9.9.9.9.9.9.9.9.9.9.9.9.9.9.9.9.9.9.9.9.9.9.9.9.9...G ",
"+.:.9.9.9.9.9.9.9.9.9.9.9.9.9.9.9.9.9.9.9.9.9.9.9.9.9.9.9.$._ 9 9 O.-.9.9.9.9.9.9.9.9.9.9.9.9.9.9.9.9.9.9.9.9.9.9.9.9.9.9.9. .G ",
"+.:.9.9.9.9.9.9.9.9.9.9.9.9.9.9.9.9.9.9.9.9.9.9.9.9.9.9.9.$._ 8 8 +.-.9.9.9.9.9.9.9.9.9.9.9.9.9.9.9.9.9.9.9.9.9.9.9.9.9.9.9. .G ",
"L K S S S S S S S S S S S S S S S S S S S S S S S S S S S v g     A A S S S S S S S S S S S S S S S S S S S S S S S S S S S s i ",
"x.5 o o o o o o o o o o o o o o o o o o o o o o o o o o o @ x.x.x.x.# o o o o o o o o o o o o o X o o o o o o o o o o o o o . x."
};
