/* XPM */
static char *_13ef175b75f462ee4548a720d4a8a69g30zYvoO9SCH13CS[] = {
/* columns rows colors chars-per-pixel */
"16 16 163 2 ",
"   c #509B25",
".  c #519C25",
"X  c #4E9426",
"o  c #57A026",
"O  c #519925",
"+  c #529825",
"@  c #55A026",
"#  c #4D9526",
"$  c #529B26",
"%  c #4F9725",
"&  c #4D9225",
"*  c #569D24",
"=  c #4F9624",
"-  c #549B25",
";  c #519826",
":  c #4B872D",
">  c #529F25",
",  c #549F24",
"<  c #519825",
"1  c #529B25",
"2  c #529C24",
"3  c #509825",
"4  c #529A26",
"5  c #529A24",
"6  c #519926",
"7  c #519C26",
"8  c #4E902C",
"9  c #519B25",
"0  c #549E26",
"q  c #529B24",
"w  c #549D25",
"e  c #519A26",
"r  c #509B26",
"t  c #4F9724",
"y  c #519A25",
"u  c #539D26",
"i  c #539B25",
"p  c #498B26",
"a  c #4F9B25",
"s  c #4E9525",
"d  c #539C27",
"f  c #4F9825",
"g  c #4C9325",
"h  c #4D9724",
"j  c #4D9324",
"k  c #4E9625",
"l  c #4B9424",
"z  c #4B9124",
"x  c #4D9525",
"c  c #509827",
"v  c #509925",
"b  c #4B9023",
"n  c #559E24",
"m  c #4F9924",
"M  c #509A25",
"N  c #4F9525",
"B  c #4D8C29",
"V  c #4A872A",
"C  c #478D25",
"Z  c #4F9823",
"A  c #4C9623",
"S  c #4F9723",
"D  c #529923",
"F  c #509923",
"G  c #569D25",
"H  c #509824",
"J  c #4C9625",
"K  c #4E9327",
"L  c #4D8430",
"P  c #4E8535",
"I  c #4C8B2A",
"U  c #4E9725",
"Y  c #499223",
"T  c #4D9424",
"R  c #549C23",
"E  c #519723",
"W  c #559C24",
"Q  c #529A25",
"!  c #4D9326",
"~  c #509724",
"^  c #4E9825",
"/  c #4D9524",
"(  c #4E912A",
")  c #4F8B30",
"_  c #518E33",
"`  c #519728",
"'  c #4C9523",
"]  c #519823",
"[  c #539925",
"{  c #529C25",
"}  c #569E25",
"|  c #579C25",
" . c #579E26",
".. c #56A025",
"X. c #519C24",
"o. c #509A24",
"O. c #58A124",
"+. c #579D24",
"@. c #58A125",
"#. c #57A025",
"$. c #559F26",
"%. c #4D9626",
"&. c #4E9326",
"*. c #549C25",
"=. c #519B24",
"-. c #4C9324",
";. c #4D9624",
":. c #4F9426",
">. c #579F25",
",. c #509626",
"<. c #4D8E29",
"1. c #498927",
"2. c #539F26",
"3. c #519924",
"4. c #509924",
"5. c #539D24",
"6. c #4E9623",
"7. c #539C24",
"8. c #539D25",
"9. c #4C8D28",
"0. c #498926",
"q. c #55A228",
"w. c #4F9625",
"e. c #4E9624",
"r. c #519A24",
"t. c #4E9524",
"y. c #58A526",
"u. c #4D9325",
"i. c #4E9523",
"p. c #4E9325",
"a. c #4F9424",
"s. c #509625",
"d. c #519726",
"f. c #58A725",
"g. c #4E9925",
"h. c #4E9824",
"j. c #559D24",
"k. c #529924",
"l. c #559D25",
"z. c #579E25",
"x. c #4E9724",
"c. c #4B9225",
"v. c #529824",
"b. c #529625",
"n. c #4E9425",
"m. c #4A9325",
"M. c #4F9526",
"N. c #519624",
"B. c #4D9625",
"V. c #57A525",
"C. c #549A23",
"Z. c #519724",
"A. c #539B24",
"S. c #519824",
"D. c #569C25",
"F. c #539A25",
"G. c #54A025",
"H. c #569E24",
"J. c #559A24",
"K. c #509725",
"L. c #579D25",
"P. c #4F9824",
"I. c white",
/* pixels */
"  . X o O + @ # $ % & * = - ; : ",
"> , < 1 2 3   $ 4 5 = 1 5 6 7 8 ",
"> 9 O 0 q 1 w e r t % y O u i p ",
"O a s d f g h j k l z f x c v b ",
"n m M N B V C Z 5 A S D F G 5 H ",
"v J k K L P I g U Y T R E W Q ! ",
"~ ^ / ( ) _ ` = % ' T q ] [ w 4 ",
"2 { y } |  ...2 X.o.{ O.+.@.#.$.",
"%.1 &.G *.< =.-.;.t :.>.< ,.<.1.",
"2.*.3.4.5.H ;.6.H 7.3 { 8.~ 9.0.",
"q.$ w.4.= e.r.s 1 3.% 1 t.O i t ",
"y.7 u.% i.p.v a.s./ j 3 t.d.u H ",
"f.g.h.j.k.* l.k.r.J 1 j.k.z.- Z ",
"=.x.c.w v.b.i n.k m.M.n N.[ v B.",
"V.X.;.i C.Z.A.H S.;.e.G D.F.q Q ",
"G.1 U H.J.| l.~ y K.t >.| L.i P."
};
