/* XPM */
static char *result[] = {
/* columns rows colors chars-per-pixel */
"64 61 107 2 ",
"   c #050301",
".  c #150D05",
"X  c #171201",
"o  c #1D1801",
"O  c #23170A",
"+  c #24190B",
"@  c #2D200F",
"#  c #342513",
"$  c #362912",
"%  c #392A16",
"&  c #3C2E19",
"*  c #423706",
"=  c #473A06",
"-  c #463809",
";  c #4B3E09",
":  c #413611",
">  c #47331B",
",  c #4C371F",
"<  c #4E3920",
"1  c #4F4105",
"2  c #4E400A",
"3  c #534506",
"4  c #5D4E03",
"5  c #5E4F0B",
"6  c #786702",
"7  c #5B4326",
"8  c #5E4629",
"9  c #6A4F2F",
"0  c #867304",
"q  c #8D7C00",
"w  c #826740",
"e  c #886D44",
"r  c #867452",
"t  c #8C7953",
"y  c #938000",
"u  c #968211",
"i  c #B19B00",
"p  c #B19F1D",
"a  c #B6A000",
"s  c #BEA703",
"d  c #C7AC00",
"f  c #C9AF00",
"g  c #CDB300",
"h  c #D1B700",
"j  c #D5BB00",
"k  c #D9BE00",
"l  c #C7B62C",
"z  c #DCC200",
"x  c #E1C600",
"c  c #E5CA00",
"v  c #E9CE00",
"b  c #EDD200",
"n  c #F1D600",
"m  c #F5DA00",
"M  c #F9DE00",
"N  c #EDD71B",
"B  c #FEE300",
"V  c #FFEB00",
"C  c #F8E108",
"Z  c #FEEE0A",
"A  c #FFF301",
"S  c #FFFB00",
"D  c #FFF50B",
"F  c #FFF90C",
"G  c #FEEC15",
"H  c #FFF414",
"J  c #FFFB14",
"K  c #FFF51C",
"L  c #FFFC1C",
"P  c #DBC92C",
"I  c #FCED2A",
"U  c #FFF423",
"Y  c #FFFC24",
"T  c #FEF22C",
"R  c #FFFD2B",
"E  c #FEF233",
"W  c #FFFD34",
"Q  c #FEF43C",
"!  c #FFFD3B",
"~  c #988459",
"^  c #A68956",
"/  c #AB8D59",
"(  c #A38F64",
")  c #C5AB71",
"_  c #CDB477",
"`  c #FFF743",
"'  c #FFFC44",
"]  c #FFFC4B",
"[  c #FFFD54",
"{  c #FFFD5C",
"}  c #FFFD63",
"|  c #FFFD6B",
" . c #FFFD73",
".. c #FFFD7A",
"X. c #DFD199",
"o. c #EBDB96",
"O. c #EEE09B",
"+. c #E5D8A0",
"@. c #E9DCA2",
"#. c #EEE2AA",
"$. c #F2E9B5",
"%. c #F4EEBD",
"&. c #F8F4C6",
"*. c #F9F6CB",
"=. c #FAF7D3",
"-. c #FAF8D7",
";. c None",
/* pixels */
";.;.;.;.;.;.;.;.;.;.;.;.;.;.;.;.;.;.;.;.;.;.;.;.;.;.;.;.;.;.;.V Z ;.;.;.;.;.;.;.;.;.;.;.;.;.;.;.;.;.;.;.;.;.;.;.;.;.;.;.;.;.;.;.",
";.;.;.;.;.;.;.;.;.;.;.;.;.;.;.;.;.;.;.;.;.;.;.;.;.;.;.;.;.;.;.A W ;.;.;.;.;.;.;.;.;.;.;.;.;.;.;.;.;.;.;.;.;.;.;.;.;.;.;.;.;.;.;.",
";.;.;.;.;.;.;.;.;.;.;.;.;.;.;.;.;.;.;.;.;.;.;.;.;.;.;.;.;.;.m S ! D ;.;.;.;.;.;.;.;.;.;.;.;.;.;.;.;.;.;.;.;.;.;.;.;.;.;.;.;.;.;.",
";.;.;.;.;.;.;.;.;.;.;.;.;.;.;.;.;.;.;.;.;.;.;.;.;.;.;.;.;.;.B F ! Y ;.;.;.;.;.;.;.;.;.;.;.;.;.;.;.;.;.;.;.;.;.;.;.;.;.;.;.;.;.;.",
";.;.;.;.;.;.;.;.;.;.;.;.;.;.;.;.;.;.;.;.;.;.;.;.;.;.;.;.;.n B J ' ! L ;.;.;.;.;.;.;.;.;.;.;.;.;.;.;.;.;.;.;.;.;.;.;.;.;.;.;.;.;.",
";.;.;.;.;.;.;.;.;.;.;.;.;.;.;.;.;.;.;.;.;.;.;.;.;.;.;.;.;.M V L ' ' W ;.;.;.;.;.;.;.;.;.;.;.;.;.;.;.;.;.;.;.;.;.;.;.;.;.;.;.;.;.",
";.;.;.;.;.;.;.;.;.;.;.;.;.;.;.;.;.;.;.;.;.;.;.;.;.;.;.;.b B V Y ] [ ' E ;.;.;.;.;.;.;.;.;.;.;.;.;.;.;.;.;.;.;.;.;.;.;.;.;.;.;.;.",
";.;.;.;.;.;.;.;.;.;.;.;.;.;.;.;.;.;.;.;.;.;.;.;.;.;.;.;.m B A R ] { [ ' ;.;.;.;.;.;.;.;.;.;.;.;.;.;.;.;.;.;.;.;.;.;.;.;.;.;.;.;.",
";.;.;.;.;.;.;.;.;.;.;.;.;.;.;.;.;.;.;.;.;.;.;.;.;.;.;.b M B A R ] { [ [ Q ;.;.;.;.;.;.;.;.;.;.;.;.;.;.;.;.;.;.;.;.;.;.;.;.;.;.;.",
";.;.;.;.;.;.;.;.;.;.;.;.;.;.;.;.;.;.;.;.;.;.;.;.;.;.;.n B V A Y ] } { [ ] ;.;.;.;.;.;.;.;.;.;.;.;.;.;.;.;.;.;.;.;.;.;.;.;.;.;.;.",
";.;.;.;.;.;.;.;.;.;.;.;.;.;.;.;.;.;.;.;.;.;.;.;.;.;.v m B B A Y ] } } { [ Q ;.;.;.;.;.;.;.;.;.;.;.;.;.;.;.;.;.;.;.;.;.;.;.;.;.;.",
";.;.;.;.;.;.;.;.;.;.;.;.;.;.;.;.;.;.;.;.;.;.;.;.;.x m M B V A Y ' } } { [ [ I ;.;.;.;.;.;.;.;.;.;.;.;.;.;.;.;.;.;.;.;.;.;.;.;.;.",
";.;.;.;.;.;.;.;.;.;.;.;.;.;.;.;.;.;.;.;.;.;.;.;.;.v m B B V S L ! { | } { [ Q ;.;.;.;.;.;.;.;.;.;.;.;.;.;.;.;.;.;.;.;.;.;.;.;.;.",
";.;.;.;.;.;.;.;.;.;.;.;.;.;.;.;.;.;.;.;.;.;.;.;.x m m B B V D L ! [ } } } { [ T ;.;.;.;.;.;.;.;.;.;.;.;.;.;.;.;.;.;.;.;.;.;.;.;.",
";.;.;.;.;.;.;.;.;.;.;.;.;.;.;.;.;.;.;.;.;.;.;.;.v m M B B A S L W ] } | } { { ` ;.;.;.;.;.;.;.;.;.;.;.;.;.;.;.;.;.;.;.;.;.;.;.;.",
";.;.;.;.;.;.;.;.;.;.;.;.;.;.;.;.;.;.;.;.;.;.;.x n M B B V V D J W ' } | | } { [ E ;.;.;.;.;.;.;.;.;.;.;.;.;.;.;.;.;.;.;.;.;.;.;.",
";.;.;.;.;.;.;.;.;.;.;.;.;.;.;.;.;.;.;.;.;.;.;.b M M B B V V D J R ' { } | | { { ` ;.;.;.;.;.;.;.;.;.;.;.;.;.;.;.;.;.;.;.;.;.;.;.",
";.;.;.;.;.;.;.;.;.;.;.;.;.;.;.;.;.;.;.;.;.;.x m M B B B V A A J Y ! ] } | | } { [ Q ;.;.;.;.;.;.;.;.;.;.;.;.;.;.;.;.;.;.;.;.;.;.",
";.;.;.;.;.;.;.;.;.;.;.;.;.;.;.;.;.;.;.;.;.;.b B B B B B V A A J Y W ] { | | | { [ ] ;.;.;.;.;.;.;.;.;.;.;.;.;.;.;.;.;.;.;.;.;.;.",
";.;.;.;.;.;.;.;.;.;.;.;.;.;.;.;.;.;.;.V V B B B B V V V V V A J Y W ' [ } |  .| { { ] Q I ;.;.;.;.;.;.;.;.;.;.;.;.;.;.;.;.;.;.;.",
";.;.;.;.;.;.;.;.;.;.;.;.;.;.A A S S S S S A B V V V B V V V D F L R ! ] { }  . .| } { { [ ] ] Q E I ;.;.;.;.;.;.;.;.;.;.;.;.;.;.",
";.;.;.;.;.;.;.V V A A A A S S S S S S S S A V V V V V V A A A F L Y W ' [ } |  . . .| | | } } { { [ [ ] ] Q E T T ;.;.;.;.;.;.;.",
";.V V A A A S S S S S S S S S S S S S S A A V A V V V V V A A D J L R ! ' { }  . ......... .| | } } { { { { [ [ ] ] Q E T U Z ;.",
"v m B B V V V A A A A S S S S S S S S A A A V V V V B V V V A D J L Y R Q ] [ } |  ........... . . .| | } } } { { [ [ ] ! W Y V ",
";.v v b m M B B B V V V A A A A A A A A A V V V V B d f B A A D J J Y U P l ` [ { { } | |  .|  .| | | } } } { { [ ] ' W Y K M ;.",
";.;.v c c b n m M M B B B B B V V A V A V V V V B i ~ t x V Z A D J Y N r ( p Q ' ] [ [ [ { { { { [ ] [ ] ' ' ! W R U G B b ;.;.",
";.;.;.b c c c v n n m M M B B B B B V V V V V B B $ $.+.0 B V A D F H q X.%.: U W W ! ! ! ! ! ! W W R R Y Y L H D V B m x ;.;.;.",
";.;.;.;.n v c c c v v n m m M M B B B B B B B B m # =.&.3 B V A A A Z 5 $.-.% G L Y Y R Y R Y L L J F F A A V B B m v z ;.;.;.;.",
";.;.;.;.;.n v v c c c c v n n m M M M B B M B M n $ &.#.- M B V V Z V ; @.*.& C H J J J J J S D S A A A V B B M b c k ;.;.;.;.;.",
";.;.;.;.;.;.n b c c c c c v v n b m m m M M M M b # o._ - M B V V V B ; ) o.% M A D D A A A A V V V V B B M m b x j ;.;.;.;.;.;.",
";.;.;.;.;.;.;.n v v c c c x c c b b b m m m m m b # ^ e - m B B B V B ; w / % n V A A V V V V V B B B M m b v z j ;.;.;.;.;.;.;.",
";.;.;.;.;.;.;.;.n b v c c c x c c b b b b n m n v @ 9 8 = n B B B B M ; 8 9 # n B V V V B V B B B M m n v c z h ;.;.;.;.;.;.;.;.",
";.;.;.;.;.;.;.;.;.n b c v c x x z v v v b b n b x O 7 < 3 b M M B M M 4 , < + m B B B V B B B M m n b v x z g ;.;.;.;.;.;.;.;.;.",
";.;.;.;.;.;.;.;.;.M n b v c c x c z c v v b b b x . > $ 6 b m M M M m 0 # > . n B B B B B B M M m b v x z g f ;.;.;.;.;.;.;.;.;.",
";.;.;.;.;.;.;.;.;.;.M n b c c c c z x v v v v v x o O . i b m M M M n s . + X n M B B B B M M m b v x z h g ;.;.;.;.;.;.;.;.;.;.",
";.;.;.;.;.;.;.;.;.;.;.m n b v c v c x x v v b v v y     z m m m m M m c     q M B B M B B M M m b v z g d ;.;.;.;.;.;.;.;.;.;.;.",
";.;.;.;.;.;.;.;.;.;.;.;.M n v v c c z v c v v v v z i j v b b m m m m n k i n M B B M B B B M n b z h d ;.;.;.;.;.;.;.;.;.;.;.;.",
";.;.;.;.;.;.;.;.;.;.;.;.;.m b b v c c x c v v v v v v b b b b m n n n n n M M M M B B M M M M m v j d ;.;.;.;.;.;.;.;.;.;.;.;.;.",
";.;.;.;.;.;.;.;.;.;.;.;.;.;.m b v c c z c v v v v v v v v v b b b n n n n M M M B M M B B B M m v j ;.;.;.;.;.;.;.;.;.;.;.;.;.;.",
";.;.;.;.;.;.;.;.;.;.;.;.;.;.;.b v v v c x c v v v v v v v v v b v b n n n n n M M M B M B B B B M ;.;.;.;.;.;.;.;.;.;.;.;.;.;.;.",
";.;.;.;.;.;.;.;.;.;.;.;.;.;.;.b b v c x c c v v v v v v v c v v v v b b b n m m M B M B B V B V V ;.;.;.;.;.;.;.;.;.;.;.;.;.;.;.",
";.;.;.;.;.;.;.;.;.;.;.;.;.;.;.b v c v x c c c v c v x x v x x v c c v v b b n m M M B B B B V V V ;.;.;.;.;.;.;.;.;.;.;.;.;.;.;.",
";.;.;.;.;.;.;.;.;.;.;.;.;.;.;.b v v c x c c c c x v v c x x x x x x c c v b n n m M M B B V V V A ;.;.;.;.;.;.;.;.;.;.;.;.;.;.;.",
";.;.;.;.;.;.;.;.;.;.;.;.;.;.b b v v c c c c c c v x x x z x x x x x x c c v b b m m M B B V A A A V ;.;.;.;.;.;.;.;.;.;.;.;.;.;.",
";.;.;.;.;.;.;.;.;.;.;.;.;.;.b b v c c x c c c x x x x x z z z z x z z z x c v v n m M B B V V A A V ;.;.;.;.;.;.;.;.;.;.;.;.;.;.",
";.;.;.;.;.;.;.;.;.;.;.;.;.;.b b v v c v v x c x x z z z z z z z z z z z z x c v b b m M B B V A A A ;.;.;.;.;.;.;.;.;.;.;.;.;.;.",
";.;.;.;.;.;.;.;.;.;.;.;.;.;.b b v c v x c c x x z z k k k j j k k j k j k z z c v b n M B B V A A A ;.;.;.;.;.;.;.;.;.;.;.;.;.;.",
";.;.;.;.;.;.;.;.;.;.;.;.;.;.b b v c x x x x z z z k k j h j h j j h j j k j k z x v b m M B V V A A ;.;.;.;.;.;.;.;.;.;.;.;.;.;.",
";.;.;.;.;.;.;.;.;.;.;.;.;.;.b b v x x x z z z k k j j g h h h j h h j j k j j k z x v b m M B V A A ;.;.;.;.;.;.;.;.;.;.;.;.;.;.",
";.;.;.;.;.;.;.;.;.;.;.;.;.n b v v x x z z z k j j h h h g g g h j j j k k j j j k z z v n m B V A A V ;.;.;.;.;.;.;.;.;.;.;.;.;.",
";.;.;.;.;.;.;.;.;.;.;.;.;.n b v v x z z z j j j g j g g g g g h j k k k j k j k j j z x v n M B V A A ;.;.;.;.;.;.;.;.;.;.;.;.;.",
";.;.;.;.;.;.;.;.;.;.;.;.;.n b v x z z k k j h g j g g g f g f g z z z k z k k k j j j z x v n B V A A ;.;.;.;.;.;.;.;.;.;.;.;.;.",
";.;.;.;.;.;.;.;.;.;.;.;.;.n b c x z z k j j h g g g f g f f ;.;.;.;.x x z z z k k j j j k c b M B A A ;.;.;.;.;.;.;.;.;.;.;.;.;.",
";.;.;.;.;.;.;.;.;.;.;.;.;.b v c z z z j h g g g f g g g ;.;.;.;.;.;.;.;.v x x z k k j j h z c n M V A ;.;.;.;.;.;.;.;.;.;.;.;.;.",
";.;.;.;.;.;.;.;.;.;.;.;.;.b c x z k j h g g g g g g ;.;.;.;.;.;.;.;.;.;.;.;.v x z z k j j h z v m B A ;.;.;.;.;.;.;.;.;.;.;.;.;.",
";.;.;.;.;.;.;.;.;.;.;.;.;.v c x k j j h g g g g ;.;.;.;.;.;.;.;.;.;.;.;.;.;.;.;.v x z z j j h z b M V ;.;.;.;.;.;.;.;.;.;.;.;.;.",
";.;.;.;.;.;.;.;.;.;.;.;.n v x z k g g g g g ;.;.;.;.;.;.;.;.;.;.;.;.;.;.;.;.;.;.;.;.v x z k h j x n V V ;.;.;.;.;.;.;.;.;.;.;.;.",
";.;.;.;.;.;.;.;.;.;.;.;.n c z k j g g g ;.;.;.;.;.;.;.;.;.;.;.;.;.;.;.;.;.;.;.;.;.;.;.;.c x k j j c M V ;.;.;.;.;.;.;.;.;.;.;.;.",
";.;.;.;.;.;.;.;.;.;.;.;.b x k g g g ;.;.;.;.;.;.;.;.;.;.;.;.;.;.;.;.;.;.;.;.;.;.;.;.;.;.;.;.c z j j b V ;.;.;.;.;.;.;.;.;.;.;.;.",
";.;.;.;.;.;.;.;.;.;.;.;.c k h g ;.;.;.;.;.;.;.;.;.;.;.;.;.;.;.;.;.;.;.;.;.;.;.;.;.;.;.;.;.;.;.;.x j k M ;.;.;.;.;.;.;.;.;.;.;.;.",
";.;.;.;.;.;.;.;.;.;.;.;.x h ;.;.;.;.;.;.;.;.;.;.;.;.;.;.;.;.;.;.;.;.;.;.;.;.;.;.;.;.;.;.;.;.;.;.;.;.k k ;.;.;.;.;.;.;.;.;.;.;.;."
};
