/* XPM */
static char *result[] = {
/* columns rows colors chars-per-pixel */
"32 32 115 2 ",
"   c #000401",
".  c #0B0000",
"X  c #030E03",
"o  c #140100",
"O  c #1A0200",
"+  c #041003",
"@  c #2A0100",
"#  c #2C0A02",
"$  c #340000",
"%  c #3E0E03",
"&  c #0F2409",
"*  c #0D290B",
"=  c #112709",
"-  c #132C0A",
";  c #14300C",
":  c #1B360E",
">  c #1C3B0E",
",  c #332F0C",
"<  c #3D280A",
"1  c #2F340D",
"2  c #3F360F",
"3  c #3D3A0E",
"4  c #520000",
"5  c #590000",
"6  c #461103",
"7  c #531405",
"8  c #581904",
"9  c #640000",
"0  c #7C0000",
"q  c #651D06",
"w  c #482F0A",
"e  c #423D0F",
"r  c #652006",
"t  c #244511",
"y  c #244910",
"u  c #2A5314",
"i  c #2E5913",
"p  c #2E5E1A",
"a  c #315616",
"s  c #395E17",
"d  c #325D1A",
"f  c #3E6517",
"g  c #33641A",
"h  c #326A19",
"j  c #3A751E",
"k  c #3E781E",
"l  c #436B18",
"z  c #47701A",
"x  c #427D1E",
"c  c #427E22",
"v  c #447D2A",
"b  c #487E2E",
"n  c #830000",
"m  c #8E0501",
"M  c #930100",
"N  c #A30000",
"B  c #AA0000",
"V  c #C20000",
"C  c #CC0000",
"Z  c #D20000",
"A  c #DB0000",
"S  c #EA0000",
"D  c #F40000",
"F  c #FE0000",
"G  c #FF0C0C",
"H  c #FE1313",
"J  c #FF1E1E",
"K  c #FE2F2F",
"L  c #FF3535",
"P  c #FF3E3E",
"I  c #FE4E4E",
"U  c #FE5F5F",
"Y  c #FE7777",
"T  c #45831F",
"R  c #49841E",
"E  c #4B8A1F",
"W  c #448423",
"Q  c #468B24",
"!  c #4A8D24",
"~  c #478228",
"^  c #4A842D",
"/  c #478C28",
"(  c #4A8D29",
")  c #479424",
"_  c #4C9325",
"`  c #4E9A25",
"'  c #4D9428",
"]  c #519625",
"[  c #599724",
"{  c #539B25",
"}  c #599D25",
"|  c #519628",
" . c #529C29",
".. c #4D8534",
"X. c #55A225",
"o. c #5AA425",
"O. c #5BAA25",
"+. c #54A228",
"@. c #59A728",
"#. c #5BAB2A",
"$. c #5FB326",
"%. c #5FB228",
"&. c #60A724",
"*. c #61AB24",
"=. c #61B327",
"-. c #FE8484",
";. c #FE8A8A",
":. c #FEA0A0",
">. c #FEB2B2",
",. c #FEC4C4",
"<. c #FECECE",
"1. c #FEDDDD",
"2. c #FEEBEB",
"3. c #FEF5F5",
"4. c #FEFBFB",
/* pixels */
"! O.X.` ` / } *._  .} } O.{ ` ) ] =.] { _ Q &.] _ o.[ o.{ _ ( b ",
"+.' X._ _ ] +.*.{ ! ] _ X.X.! _ _ X.{ Q _ _ o.&.Q { _  .o._ ^ ..",
" .) O.X._ _ | } { _ ` _ ` +. .' ' ] } _ E ` ` o.! ` ] _ X.`  ...",
"X.X.X.X.} `  .` O.X.X.} _ X.+. .X.{ X.X.` X.'  .o.X.o._  .X. ...",
"X.X.] X.{ ` { c R R x ! R _ } ` #.] ! R k E W T E ! X.X.} } ! v ",
"` o.` ] } ` g + + + + + X u +.' ' +.p + + + X + X g | O. .` _ W ",
")  .o.) W p 2 4 4 5 5 5 5 w g ! Q h 3 5 4 4 5 5 5 e p ' o._ ! / ",
"] {  . .W X 9 F F F F F F n   g R X 5 F F F F F F 9 X c X.Q _ ` ",
"X.] _ u , M V F I :.:.-.G C M < 1 m V F F F F F F V m , i ` { { ",
"X.o.! = @ S G H ;.4.3.,.H F F 4 $ S F F F F F F F F S @ & ] _ { ",
"{ o._ & @ S L <.2.4.U J F F D S A F F F F F F F F F S @ = } { _ ",
"Q ` ) & @ S P 3.1.>.K F F F F F F F F F F F F F F F S @ = _ ' Q ",
"! [ } * @ S P 4.-.F F F F F F F F F F F F F F F F F S @ & E _ _ ",
"X.' _ - @ S J Y P F F F F F F F F F F F F F F F F F S @ - ] X.O.",
"X.{ _ - # A D F F F F F F F F F F F F F F F F F F D A # ; }  .o.",
"` o.` E l # n F F F F F F F F F F F F F F F F F F 0 # z E X.@. .",
"!  .{ ` W ; 7 V S F F F F F F F F F F F F F F S V 8 - ) X.! _ ( ",
"Q ' O.` ! ! a . B F F F F F F F F F F F F F F B . a ! / ~ ..v W ",
"X._ { { {  .j t q M S F F F F F F F F F F S M r u x { ! ( ^ ~ ! ",
"@.o.} { { ` o.) > O Z F F F F F F F F F F Z o > O.] X.o.[ ! v ` ",
" .%.' { [ { ` ` k f % 0 F F F F F F F F 0 % f T { ' { X.[  .{ ` ",
"` @.+.) ] ! ' o.{ Q * 6 Z S F F F F S C 6 - {  .] _ W X.O.' ) { ",
"+.} @._ ! ] ] { ` W W s o M F F F F M o s Q ` X.! Q _ ] O.` { _ ",
"%.X.X.' ` ' _ _ ] ` } x : q N S S N q : k _ ! { [ { { ! o.] { { ",
"$.%.` ` ` ` O.} ] ` ] &.{ y . C C . y  .) o.o.{ ` ` o.o.}  .` ] ",
"{ O._ _ ` ) o.} ] { { &.{ T f 7 7 d j | { X.o.[ ` } o.o.{ } _ ` ",
"_ o.X.Q ' _ { O.{ { ] } o.] ] - ; ` ) ' { ' O.o.` } ! X.) { { ` ",
"` _ ` ) Q ] ' X.{ ! ! } X.` Q x E ` _ Q ] ! ` o.! ! ] [ X.! Q ` ",
"O.` O.` _ ` ! ] } ] ] E } X.] { ' ] { ) ` ` Q o.` [ { ' o.{ { { ",
"=.@.`  .` ` o.} } { ` X.{ { ` ` o.) { ] _ o.} o.o.} X.{ { ` { o.",
"o.O._ } _ ` o.} } } ] o.` ] } ! o.] ` { / X.} } o.[ { [ { } _ ` ",
"_ X.} ` ` ! { &._ { } } o.} ` _ _ o.] ` ) ! O.[ _ o.[ o.X.] ` ` "
};
