/* XPM */
static char *fc93fbc8993049bfd542f18c5f9fceb65MN6MEyEkcDZDpvi[] = {
/* columns rows colors chars-per-pixel */
"16 16 183 2 ",
"   c #509B25",
".  c #519C25",
"X  c #4E9426",
"o  c #57A026",
"O  c #519925",
"+  c #529925",
"@  c #55A026",
"#  c #4D9526",
"$  c #529B26",
"%  c #4F9725",
"&  c #4D9225",
"*  c #569D24",
"=  c #509624",
"-  c #549B25",
";  c #519826",
":  c #4B872D",
">  c #529F25",
",  c #549F24",
"<  c #519825",
"1  c #529B25",
"2  c #529C24",
"3  c #509925",
"4  c #509C26",
"5  c #529A26",
"6  c #519A24",
"7  c #4E9624",
"8  c #529C25",
"9  c #519A26",
"0  c #519C26",
"q  c #4E902C",
"w  c #519B25",
"e  c #4E9524",
"r  c #366418",
"t  c #2C490F",
"y  c #2D4910",
"u  c #386217",
"i  c #4E9825",
"p  c #366417",
"a  c #2A4911",
"s  c #386517",
"d  c #519A25",
"f  c #539C25",
"g  c #498B26",
"h  c #4E9724",
"j  c #3B5C17",
"k  c #761105",
"l  c #A1090A",
"z  c #A10C0D",
"x  c #7D1005",
"c  c #3B5615",
"v  c #395D17",
"b  c #751204",
"n  c #A10000",
"m  c #761104",
"M  c #3E6018",
"N  c #4B9024",
"B  c #559F24",
"V  c #366919",
"C  c #701204",
"Z  c #E91718",
"A  c #FF8E8E",
"S  c #EC1112",
"D  c #850D02",
"F  c #7C1104",
"G  c #E70000",
"H  c red",
"J  c #E80000",
"K  c #6F1304",
"L  c #386A19",
"P  c #519B26",
"I  c #2C5815",
"U  c #890403",
"Y  c #FF7E7E",
"T  c #FEC4C4",
"R  c #FD4444",
"E  c #FF0303",
"W  c #EE0000",
"Q  c #EB0000",
"!  c #FE0000",
"~  c #880100",
"^  c #2F5915",
"/  c #4E9626",
"(  c #2F5A15",
")  c #FF6061",
"_  c #FD0101",
"`  c #FD0000",
"'  c #880200",
"]  c #2E5A15",
"[  c #539C26",
"{  c #529D24",
"}  c #3F781D",
"|  c #5F2308",
" . c #D40505",
".. c #FF0203",
"X. c #D40000",
"o. c #602408",
"O. c #427C1D",
"+. c #55A127",
"@. c #4D9626",
"#. c #3D701C",
"$. c #5F1F08",
"%. c #D50000",
"&. c #602207",
"*. c #3E731D",
"=. c #4D8E29",
"-. c #498927",
";. c #539F26",
":. c #549C25",
">. c #509924",
",. c #3D731C",
"<. c #5F2107",
"1. c #D70000",
"2. c #D60000",
"3. c #602307",
"4. c #43791B",
"5. c #509824",
"6. c #4D8D28",
"7. c #498926",
"8. c #55A228",
"9. c #509625",
"0. c #4F9925",
"q. c #3F731B",
"w. c #5E1F07",
"e. c #5E2107",
"r. c #42791C",
"t. c #539B25",
"y. c #4F9724",
"u. c #58A526",
"i. c #4D9325",
"p. c #509725",
"a. c #4D9524",
"s. c #3F711B",
"d. c #5D2007",
"f. c #3D721C",
"g. c #4F9825",
"h. c #519726",
"j. c #539D26",
"k. c #58A725",
"l. c #4E9925",
"z. c #4E9824",
"x. c #559D24",
"c. c #529924",
"v. c #44791D",
"b. c #612308",
"n. c #5E2108",
"m. c #579E25",
"M. c #4F9823",
"N. c #519B24",
"B. c #4B9225",
"V. c #549D25",
"C. c #529824",
"Z. c #539725",
"A. c #3D711C",
"S. c #3E751C",
"D. c #4A9425",
"F. c #4F9526",
"G. c #559E24",
"H. c #519624",
"J. c #539925",
"K. c #4D9625",
"L. c #57A525",
"P. c #519C24",
"I. c #4D9624",
"U. c #549A23",
"Y. c #519724",
"T. c #539B24",
"R. c #519924",
"E. c #569D25",
"W. c #569C25",
"Q. c #539A25",
"!. c #529B24",
"~. c #529A25",
"^. c #54A025",
"/. c #4E9725",
"(. c #569E24",
"). c #559A24",
"_. c #579C25",
"`. c #559D25",
"'. c #509724",
"]. c #579F25",
"[. c #579D25",
"{. c #4F9824",
"}. c white",
/* pixels */
"  . X o O + @ # $ % & * = - ; : ",
"> , < 1 2 3 4 $ 5 6 7 8 6 9 0 q ",
"> w e r t y u 7 i p a a s d f g ",
"O h j k l z x c v b n n m M 7 N ",
"B V C Z A A S D F G H H J K L 6 ",
"P I U Y T R E W Q ! ! ! H ~ ^ / ",
"O ( U ) R _ ` ! ! ` ! ! H ' ] [ ",
"{ } |  ...! ` ! ! ! ! H X.o.O.+.",
"@.1 #.$.%.! ! ` ` ! ! %.&.*.=.-.",
";.:.>.,.<.1.! ! ! ! 2.3.4.5.6.7.",
"8.$ 9.0.q.w.2.! ! 2.e.r.e O t.y.",
"u.0 i.p.a.s.<.%.X.d.f.g.e h.j.5.",
"k.l.z.x.c.x.v.b.n.,.w x.c.m.- M.",
"N.h B.V.C.Z.1 A.S.D.F.G.H.J.3 K.",
"L.P.I.t.U.Y.T.5.R.I.7 E.W.Q.!.~.",
"^.1 /.(.)._.`.'.d p.y.]._.[.t.{."
};
