/* XPM */
static char *_986d01a5bfb4576d1b2f3274e9a1846CqKXmle7uhGaw18F[] = {
/* columns rows colors chars-per-pixel */
"16 16 183 2 ",
"   c #509B25",
".  c #519C25",
"X  c #4E9426",
"o  c #57A026",
"O  c #519925",
"+  c #529825",
"@  c #55A026",
"#  c #4D9526",
"$  c #529B26",
"%  c #4F9725",
"&  c #4D9225",
"*  c #569D24",
"=  c #4F9624",
"-  c #549B25",
";  c #519826",
":  c #4B872D",
">  c #529F25",
",  c #549F24",
"<  c #519825",
"1  c #529B25",
"2  c #529C24",
"3  c #509825",
"4  c #529A26",
"5  c #529A24",
"6  c #519926",
"7  c #519C26",
"8  c #4E902C",
"9  c #519B25",
"0  c #519A25",
"q  c #539E26",
"w  c #509A22",
"e  c #4F9A22",
"r  c #529B23",
"t  c #4F9824",
"y  c #4E9824",
"u  c #4D9522",
"i  c #4C9522",
"p  c #4F9923",
"a  c #519924",
"s  c #539D26",
"d  c #539B25",
"f  c #498B26",
"g  c #4F9B25",
"h  c #4C9323",
"j  c #569C2C",
"k  c #6AA548",
"l  c #85B26D",
"z  c #9DC286",
"x  c #A0BF8F",
"c  c #A0C08F",
"v  c #99BC86",
"b  c #85B06C",
"n  c #6BA647",
"m  c #51952B",
"M  c #4F9724",
"N  c #509924",
"B  c #4B9024",
"V  c #559E24",
"C  c #4F9925",
"Z  c #72A854",
"A  c #AFC6A2",
"S  c #D2D9CD",
"D  c #D0D1CF",
"F  c #C3C2C3",
"G  c #B8B6B7",
"H  c #B1C8A2",
"J  c #78AB54",
"K  c #529925",
"L  c #509823",
"P  c #73A757",
"I  c #B4BBAE",
"U  c #898688",
"Y  c #555253",
"T  c #3C3839",
"R  c #302C2D",
"E  c #2A2627",
"W  c #555153",
"Q  c #888587",
"!  c #B5BCAF",
"~  c #76A757",
"^  c #4C9324",
"/  c #54992A",
"(  c #789268",
")  c #464144",
"_  c #211D1E",
"`  c #201C1D",
"'  c #221E1F",
"]  c #201B1C",
"[  c #454144",
"{  c #799368",
"}  c #569D2B",
"|  c #549E27",
" . c #45682E",
".. c #221D1F",
"X. c #231E20",
"o. c #231F20",
"O. c #221E1E",
"+. c #486B2E",
"@. c #57A129",
"#. c #4E9625",
"$. c #4C8E23",
"%. c #324B21",
"&. c #25261F",
"*. c #324B22",
"=. c #477F28",
"-. c #498A27",
";. c #539F26",
":. c #549D25",
">. c #4F9424",
",. c #437723",
"<. c #375721",
"1. c #2E3E20",
"2. c #2A3320",
"3. c #282D20",
"4. c #2B331F",
"5. c #2E3F20",
"6. c #395A22",
"7. c #487C23",
"8. c #4F9224",
"9. c #4D8D28",
"0. c #498926",
"q. c #55A228",
"w. c #509625",
"e. c #509A25",
"r. c #4E9524",
"t. c #4B8E24",
"y. c #4C8C23",
"u. c #478224",
"i. c #4A8724",
"p. c #4B8A23",
"a. c #4D8F25",
"s. c #58A526",
"d. c #4D9325",
"f. c #4E9523",
"g. c #4E9425",
"h. c #4F9524",
"j. c #519725",
"k. c #4D9624",
"l. c #4D9324",
"z. c #519726",
"x. c #509824",
"c. c #58A725",
"v. c #4E9925",
"b. c #559D24",
"n. c #529924",
"m. c #559D25",
"M. c #519A24",
"N. c #4C9625",
"B. c #579E25",
"V. c #4F9823",
"C. c #519B24",
"Z. c #4E9724",
"A. c #4B9225",
"S. c #529824",
"D. c #529625",
"F. c #4A9325",
"G. c #4F9526",
"H. c #519624",
"J. c #539925",
"K. c #509925",
"L. c #4D9625",
"P. c #57A525",
"I. c #519C24",
"U. c #549A23",
"Y. c #519724",
"T. c #539B24",
"R. c #519824",
"E. c #4E9624",
"W. c #569D25",
"Q. c #569C25",
"!. c #539A25",
"~. c #529B24",
"^. c #529A25",
"/. c #54A025",
"(. c #4E9725",
"). c #569E24",
"_. c #559A24",
"`. c #579C25",
"'. c #509724",
"]. c #509725",
"[. c #579F25",
"{. c #579D25",
"}. c white",
/* pixels */
"  . X o O + @ # $ % & * = - ; : ",
"> , < 1 2 3   $ 4 5 = 1 5 6 7 8 ",
"> 9 0 q w e r t y u i p a s d f ",
"O g h j k l z x c v b n m M N B ",
"V C Z A S D F G G F D S H J K L ",
"t P I U Y T R E E R T W Q ! ~ ^ ",
"/ ( ) _ ` _ _ ' ' _ _ ] _ [ { } ",
"|  .' ..X.o.o.o.o.o.o.X...O.+.@.",
"#.$.%.&.' ............' &.*.=.-.",
";.:.>.,.<.1.2.3.3.4.5.6.7.8.9.0.",
"q.$ w.e.r.t.y.u.i.p.a.9 % O d M ",
"s.7 d.% f.g.e.h.j.k.l.3 r.z.s x.",
"c.v.y b.n.* m.n.M.N.1 b.n.B.- V.",
"C.Z.A.:.S.D.d g.#.F.G.V H.J.K.L.",
"P.I.k.d U.Y.T.x.R.k.E.W.Q.!.~.^.",
"/.1 (.)._.`.m.'.0 ].M [.`.{.d t "
};
