/* XPM */
static char *result[] = {
/* columns rows colors chars-per-pixel */
"64 64 249 2 ",
"   c #550B2A",
".  c #5A0C2E",
"X  c #5D0E2F",
"o  c #640D33",
"O  c #6A0E36",
"+  c #6A1638",
"@  c #70153F",
"#  c #711B3C",
"$  c #64162D",
"%  c #722B35",
"&  c #433535",
"*  c #7B5927",
"=  c #751643",
"-  c #791745",
";  c #7E1849",
":  c #791A44",
">  c #7A2745",
",  c #78384E",
"<  c #514F4D",
"1  c #765A57",
"2  c #74516A",
"3  c #6E686D",
"4  c #6B6255",
"5  c #2E404B",
"6  c #87313B",
"7  c #C23124",
"8  c #8C6617",
"9  c #986A1B",
"0  c #95751B",
"q  c #A7761F",
"w  c #A36E17",
"e  c #8E4D2A",
"r  c #987A29",
"t  c #937A38",
"y  c #906D30",
"u  c #AD7A22",
"i  c #A77924",
"p  c #B17D24",
"a  c #A87C33",
"s  c #9F5116",
"d  c #C97105",
"f  c #D5691C",
"g  c #81184D",
"h  c #841A50",
"j  c #8B2D50",
"k  c #B13D6C",
"l  c #94366A",
"z  c #93554E",
"x  c #986D50",
"c  c #A7724D",
"v  c #974E68",
"b  c #B64D75",
"n  c #916E6B",
"m  c #B8766A",
"M  c #AC726E",
"N  c #AB4854",
"B  c #C5487B",
"V  c #C64C75",
"C  c #D56166",
"Z  c #A5891E",
"A  c #B39B1E",
"S  c #AC911B",
"D  c #9D8229",
"F  c #9C8437",
"G  c #A2852C",
"H  c #A58A2C",
"J  c #AA8D2D",
"K  c #A88726",
"L  c #B58226",
"P  c #BA8529",
"I  c #BE8A2C",
"U  c #B5862A",
"Y  c #AC9423",
"T  c #AC9527",
"R  c #B39C22",
"E  c #B59827",
"W  c #A58B33",
"Q  c #AA8C33",
"!  c #A48B3B",
"~  c #A88936",
"^  c #AB9137",
"/  c #B89538",
"(  c #B38A33",
")  c #BAA523",
"_  c #BDAB24",
"`  c #B9A627",
"'  c #BBA734",
"]  c #A9941E",
"[  c #C78504",
"{  c #D58A05",
"}  c #D59404",
"|  c #E69903",
" . c #D0A80A",
".. c #F0B90A",
"X. c #C48C2D",
"o. c #C89434",
"O. c #D59B38",
"+. c #C4942D",
"@. c #C1AE2B",
"#. c #C1AB27",
"$. c #C3B22B",
"%. c #C1B026",
"&. c #C5A835",
"*. c #D5A53C",
"=. c #C4B433",
"-. c #C5B53B",
";. c #C7B93C",
":. c #CABB3C",
">. c #C8B734",
",. c #D2BC39",
"<. c #E1AF3D",
"1. c #FCC308",
"2. c #D8C83D",
"3. c #E8D43B",
"4. c #F3E433",
"5. c #9B8643",
"6. c #A38C43",
"7. c #AC8A44",
"8. c #AB9347",
"9. c #B2914F",
"0. c #BBA64A",
"q. c #B5886B",
"w. c #A6A46C",
"e. c #C59750",
"r. c #C9A849",
"t. c #DAA845",
"y. c #CABB43",
"u. c #C7B946",
"i. c #CCAD54",
"p. c #CABA56",
"a. c #D6B858",
"s. c #D5B548",
"d. c #E5AC46",
"f. c #ECB34A",
"g. c #F1B64D",
"h. c #F4BB52",
"j. c #F8BE56",
"k. c #E3B850",
"l. c #CA9076",
"z. c #D7BD66",
"x. c #C8B570",
"c. c #D4C749",
"v. c #CDC154",
"b. c #E5C64A",
"n. c #E4D648",
"m. c #FBC55B",
"M. c #F8C759",
"N. c #F2D156",
"B. c #F8E747",
"V. c #FBEE57",
"C. c #D8C365",
"Z. c #D9C973",
"A. c #CCC671",
"S. c #E9D867",
"D. c #FEDD6C",
"F. c #F9D766",
"G. c #ECCE6A",
"H. c #FAE56A",
"J. c #FEF867",
"K. c #FDE572",
"L. c #FFEC75",
"P. c #F5E579",
"I. c #FEF47A",
"U. c #FFFA7C",
"Y. c #FEF775",
"T. c #EFE272",
"R. c #2C5087",
"E. c #3568A5",
"W. c #5D749A",
"Q. c #AC708F",
"!. c #A5688B",
"~. c #C94F83",
"^. c #C95785",
"/. c #D7548B",
"(. c #F85C97",
"). c #EA5A92",
"_. c #DA6A96",
"`. c #CF6B90",
"'. c #E16E9C",
"]. c #FF639D",
"[. c #F16F8B",
"{. c #FF69A4",
"}. c #E473A3",
"|. c #ED79AC",
" X c #E976A8",
".X c #F975AD",
"XX c #ED7DB4",
"oX c #F17EB3",
"OX c #FE79B3",
"+X c #DF72A7",
"@X c #6D969D",
"#X c #308ECA",
"$X c #62A6DD",
"%X c #68C9FE",
"&X c #248DBA",
"*X c #8C8991",
"=X c #969BAD",
"-X c #AE9AA7",
";X c #D79888",
":X c #CD9087",
">X c #E8918F",
",X c #D3AE91",
"<X c #E8A595",
"1X c #F4AA9A",
"2X c #EAB093",
"3X c #F281B9",
"4X c #F984B8",
"5X c #EF87B2",
"6X c #CEB6A9",
"7X c #F4ABA3",
"8X c #F9B7A8",
"9X c #F7B9AF",
"0X c #B4C7A7",
"qX c #D6CA88",
"wX c #EADD84",
"eX c #F4D798",
"rX c #F7EB85",
"tX c #FFFE84",
"yX c #FFFF8B",
"uX c #FCF488",
"iX c #F5EC97",
"pX c #FFFE92",
"aX c #FBF799",
"sX c #EDE284",
"dX c #FACBAF",
"fX c #FAF7A5",
"gX c #FAF7B7",
"hX c #FBEAA9",
"jX c #B3B9C8",
"kX c #97B2C6",
"lX c #FD8BC3",
"zX c #FC94CA",
"xX c #FF9BD5",
"cX c #FDA4DD",
"vX c #E7A6D9",
"bX c #FFAAE6",
"nX c #FFB8F4",
"mX c #FFB1EE",
"MX c #C3B8CA",
"NX c #B8CDCA",
"BX c #C7CCDA",
"VX c #D0D3D3",
"CX c #FFD5CA",
"ZX c #FADBD6",
"AX c #F8EDCF",
"SX c #CED6E4",
"DX c #FFC3FD",
"FX c #FDF1EA",
"GX c None",
/* pixels */
"GXGXGXGXGXGXGXGXGXGXGXGXGXGXGXGXGXGXGXGXGXGXGXGXGXGXGXGXGXGXGX .GXGXGXGXGXGXGXGXGXGXGXGXGXGXGXGXGXGXGXGXGXGXGXGXGXGXGXGXGXGXGXGX",
"GXGXGXGXGXGXGXGXGXGXGXGXGXGXGXGXGXGXGXGXGXGXGXGXGXGXGXGXGXGXGX1.GXGX} GXGXGXGXGXGXGXGXGXGXGXGXGXGXGXGXGXGXGXGXGXGXGXGXGXGXGXGXGX",
"GXGXGXGXGXGXGXGXGXGXGXGXGXGXGXGXGXGXGXGXGXGXGXGXGXGXGXiXaXaX2...H.| | iXaXGXGXGXGXGXGXGXGXGXGXGXGXGXGXGXGXGXGXGXGXGXGXGXGXGXGXGX",
"GXGXGXGXGXGXGXGXGXGXGXGXGXGXGXGXGXGXGXGXGXGXGXfXwXr.i U r.C. .1...| { [ K q *.sXaXGXGXGXGXGXGXGXGXGXGXGXGXGXGXGXGXGXGXGXGXGXGXGX",
"GXGXGXGXGXGXGXGXGXGXGXGXGXGXGXGXGXGXGXGXfXZ.K o.T.pXaXpXpXNX1.1.f 7 | d ..)  .T.E #.G.fXGXGXGXGXGXGXGXGXGXGXGXGXGXGXGXGXGXGXGXGX",
"GXGXGXGXGXGXGXGXGXGXGXGXGXGXGXGXGXGXhXi.p P.pXpXfXfXpXpXgX0X..| C V f | }  . .yX4.} P.p i.fXGXGXGXGXGXGXGXGXGXGXGXGXGXGXGXGXGXGX",
"GXGXGXGXGXGXGXGXGXGXGXGXGXGXGXGXGXa.u uXfXpXaXU.tXaXfXtXJ.J.3.{ 7 7 d d }  . .[ d Y.pXpXuXu a.GXGXGXGXGXGXGXGXGXGXGXGXGXGXGXGXGX",
"GXGXGXGXGXGXGXGXGXGXGXGXGXGXGXiXq G.rXpXtXgXJ.Y.J.tXpXU.V.J.Y.J.V.g.S w d w d { w.pXyXpXyXrXG.i iXGXGXGXGXGXGXGXGXGXGXGXGXGXGXGX",
"GXGXGXGXGXGXGXGXGXGXGXGXGXGXp.r.pXC.pXpXfXJ.B.Y.V.V.J.V.V.B.B.B.B.B.V.H.Z.S d E.kXpXpXP.P.yXz.yXr.i.GXGXGXGXGXGXGXGXGXGXGXGXGXGX",
"GXGXGXGXGXGXGXGXGXGXGXGXAXL T.tXpXpXAXpXY.B.S.J.V.B.B.B.4.3.3.3.<.2.3.b.n.S.4 R.i / rXyXL.r.F.yXyXT.U fXGXGXGXGXGXGXGXGXGXGXGXGX",
"GXGXGXGXGXGXGXGXGXGXGXgXu uXyXyXpXgXyXU.V.n.C.J.B.B.3.3.c.2.:.:.;.u.;.u.;.c.A., X ; 9 a P.yXyXyXyXyXuXu fXGXGXGXGXGXGXGXGXGXGXGX",
"GXGXGXGXGXGXGXGXGXGXgXi yXyXyXyXaXpXI.H.n.;.;.S.n.3.2.2.;.;.-.;.-.;.;.-.2.0.v.qXh o o O 9 i.uXyXyXyXyXtXq fXGXGXGXGXGXGXGXGXGXGX",
"GXGXGXGXGXGXGXGXGXAXu tXyXyXyXyXfXsXS.S.;._ R S.c.c.2.=.$.$.>.>.&.=.>.-.;.u.v.p.qX  . . . % i uXyXtXyXyXtXu fXGXGXGXGXGXGXGXGXGX",
"GXGXGXGXGXGXGXGXGXU tXyXtXyXtXiXG A.Z.c._ ` Y C.c._ =._ %.%.$.%._ _ _ ' =.;.u.p.A.,     . . : w rXyXtXtXtXtXU GXGXGXGXGXGXGXGXGX",
"GXGXGXGXGXGXGXGXa.S.tXtXtXtXiX9 @ 6XqX0.' R 9.,X;.=._ %.%.%.#._ _ ) ) =.=.;.u.v.A.qX    . . = @ 9 P.yXyXtXtXT.a.GXGXGXGXGXGXGXGX",
"GXGXGXGXGXGXGXiXt.tXtXyXtXiX9   + > qX' ` H dXdX0._ _ _ _ ) ) ) ` A _ _ =.=.;.u.p.p.w.      @ @ = 9 rXtXtXtXU.t.iXGXGXGXGXGXGXGX",
"GXGXGXGXGXGXAXq tXtXtXtXaXw h h $ O ,X0.S ,X<X9X2X&.` #.R R ) A ] R _ $.$.=.;.;.v.y.v.x.h h O O O O w uXtXtXtXtXp iXGXGXGXGXGXGX",
"GXGXGXGXGXGXC.N.Y.J.U.tXK h g g O O *X,XZ 3 3 ,XdXi.` E A U 9.l.q._ _ $._ _ =.=.p.' -.u.v.j O O O O + i U.tXH.J.G.C.GXGXGXGXGXGX",
"GXGXGXGXGXgXL T.tXH.tXi.6 g g g o o x.p.4 BXkX< dX9X;X<X<X<X<Xq.;X` _ %._ _ _ 2.u.p.Y E z ; O O o O O 6 p.tXH.U.T.L iXGXGXGXGXGX",
"GXGXGXGXGXa.I.I.F.r.wX9 ; g ; g o o ;.,.6XFXW.5 dXdX8X2X<X<X<X<X<XR _ _ _ _ %._ ' p.v ; h ; o o o O $ g 9 T.r.F.Y.I.a.GXGXGXGXGX",
"GXGXGXGXgXL U.U.S.U.U > ; ; ; ; X o :.,.FXZX#X@XCX9X8X<X<X1 < q.;XH A _ _ _ _ _ $.c.v.v : ; o o o o o g g U U.S.U.U.L iXGXGXGXGX",
"GXGXGXGXP.F.I.I.U.iX9 o o o o o : ; s.2.FXFXAXSXAX8X7X<X*X=XR.< n q.S ) ) _ ) _ $.$.v.0.p.z : ; - ; - o o 8 rXU.U.Y.H.P.GXGXGXGX",
"GXGXGXGXX.I.I.U.Y.o.: . . . X X = : Z.3.FXZXFXFXAX9X8X*XSXR.& W.1 l.a S R ) R ) _ _ _ c.-.> @ g - - - . . X o.I.I.Y.U.X.GXGXGXGX",
"GXGXGXaXo.L.I.I.uX9 = . . . . . = 2 $Xr.ZXFXAXFX8X8XdX2X6X&X&XW.q.l.Y S Y R R T ` _ ` ' e   g g - = - . . . 9 U.I.I.Y.o.aXGXGXGX",
"GXGXGXP.F.L.L.L.S.e =     . .   = W.NXy ZXCXCXeX<X8X8X8X9X7X;X<X;Xc &.E F J E ! W ^ ` 1     @ @ = = = .     e G.I.L.I.F.P.GXGXGX",
"GXGXGXk.K.K.L.L.o.= =           O , A.8 CXCXZXcX8X8X8X8X7X7X7X;XM u._ ^ m t ! T 0.x.        @ @ + = =         I I.L.L.L.k.GXGXGX",
"GXGXGXo.K.K.K.K.i O o = ; h h h O @ c 0 CX8XC [.8X8X8X8X7X7X>Xm &.@.' m :XF D T ' A.v ; g h O O O O O ; ; h h q K.K.K.K.o.GXGXGX",
"GXGXGXO.H.K.K.K.e o o = g g g g o O y b.dX8X5X[.l.1X7X1X7X>Xm +.#.` l.:Xl.Z ] R ` A.VX> g g O O O O O ; ; h g 9 L.K.K.K.O.GXGXGX",
"GXGXI.d.D.D.H.K.# o O = g ; g g o O T.:.E 9X8X1X1X1X<X<X;Xm #.#.` W.q.! Y R ] R ` u.qX!.g g o O o O o ; ; g g e K.K.D.D.d.L.GXGX",
"GXGXK.h.D.D.F.F.$ o o = ; g ; ; o x.H.&.E e.7X1X1X1X>X;Xm c Z A R.E.@XZ Y ] R R ` _ v.A.6Xv O o o o z z ; ; g j F.D.D.D.h.K.GXGX",
"GXGXD.m.F.N.F.M.o o o - ; ; ; ; # H.>.#.E q a l.l.l.C x x A r R.E.$X#XZ ] ] R R ` _ ' c.v.A.I.U.Y.pX4.u.; ; - 6 M.F.N.F.M.D.GXGX",
"GXGXF.t.F.F.F.F.- - ; . o o o o e.2.$.E Y a N c :Xb n z z * * R.E.E.3 * D ] ] R _ _ _ ' c.v.c.n.3.4.:.u.+ o o % m.F.F.m.t.F.GXGX",
"GXGXm.g.G.k.s.F.- - = . o . . . c 2.$./ J c B k B k l j j v y * 4 y t t t F D ] R ` _ $.;.y.2.;.u.;.=.' % . o $ m.k.t.m.g.m.GXGX",
"GXGXh.h.m.u m.F.- = =   . . . . O s.&.E ~ zX.X~.b v ^.+X|. X+X+Xx y y t t F F D ] R ` _ =.;.;.;.;.' =.' . . . . F.m.i m.h.h.GXGX",
"GXGXd.j.m.m.m.M.g @ @   . .   . @ > v.9.DXDXnXxX+XXXzXXXlXzXXXXXXXM t t 5.5.F F F ] R ` _ =.;.;.2.' _ 8..   . $ M.m.m.m.M.d.GXGX",
"GXGXo.m.j.m.m.t.z @ @           2 %X@Xf DXDXnXbXmXmXbXzXxXxXlX3XXXXXx t * F 5.5.5.! H E ` _ $.;.' ' ' 5.      1 t.m.m.j.M.o.GXGX",
"GXGXGXF.j.j.j.O.q.O O @ ; h h l %X%X .vXnXnXbXxXbXbXcXxXxXxXzXoX3X3X5Xy F F F F 5.5.6.! T ) ` @.2.' v.v.9.; h q.O.j.j.h.N.GXGXGX",
"GXGXGXH.g.g.h.d.wXO O = h ; ; %X$X .`.nXmXcXxXlXxXxXxXxXzXlXlXlX3X3X3Xq.D F F F F 6.6.6.F H R ) _ ' ' c.v.x.h sXf.h.g.g.H.GXGXGX",
"GXGXGXD.g.f.f.g.rXO O = ; ; h x.1.v DXbXcXzXlX.XzXzXlXlX4XlX4XoX3XXX3X5XD D D D W F 6.6.6.6.W R _ _ ' c.u.v.Z.rXg.f.g.g.F.GXGXGX",
"GXGXGX*.f.f.f.f.t.# o = ; ; j e.!.mXbXcXzXOXXX}.lXlXlXoXoXoXoX5XXXXX5X5XD W D D F ! 6.6.6.6.! T ` ` _ _ ;.;.c.A.f.f.d.d.t.GXGXGX",
"GXGXGXq N.d.d.d.O.x.O = g ; `.vXbXcXzXlX4XoX|.'.|.|.|.|.|.|.|.|. X X X5XD H G H F ! ! 6.6.6.6.! Y A ) _ _ >.;.v.z.d.d.M.q GXGXGX",
"GXGXGXGXL.t.d.d.t.P.g X o o !.cXcXlX4X|.oX|.|.+X'.}. X}. X|. X'.}.}.`.'.G D D H H W ! ! ! 6.8.6.! J ] A _ _ =.c.C.d.d.P.GXGXGXGX",
"GXGXGXGX*.d.t.t.t.X.m . . . @ xX4XoX|..X|. X X}./._.'._.'.'.'.'.'.'.`.7.D G D G G W H W ! ! 6.9.! W Y Y ) ` _ >.v.i.d.r.GXGXGXGX",
"GXGXGXGX8 D.t.O.d.*.iX. . .   zX4X5X|. X X X}.}.`.^.`._.^._.'._._.x H H K D H H G H H W W W ! ! 9.8.^ H Y A ) $.;.z.K.9 GXGXGXGX",
"GXGXGXGXGXG.O.O.O.M.p x..     `.4XoX|.|.|. X}.}._.b b ^.`.b V Q.:X*X! a H K H H H H W H W Q W W F F 8.8.T T ) _ $.A.G.GXGXGXGXGX",
"GXGXGXGXGX9 H.o.O.p O.C.,     # 4XoX.X|. X X}.'.`.b z v M & q.:X*XjX. y ! W H W J J J W H J Q ~ ! ^ ! F 8.J R ) @.v.9 GXGXGXGXGX",
"GXGXGXGXGXGXa.O.p X.O.o.iX> h h zX4XoX|.|.|.}._.^.h n 1 n 2 !.w.jXNXh g O z 9.9.7.^ ^ J J J Q ^ 8.^ ^ H 0 ^ T R _ r.GXGXGXGXGXGX",
"GXGXGXGXGXGXGXL.o.o.o.o.p wXg g zXlXoX X/.B k k k j v 2 3 *X3 =XjXBX!.g O O o + # z 9./ J J ( ^ ^ 8.8.~ K ! T A ' 0.GXGXGXGXGXGX",
"GXGXGXGXGXGXGXL b.o.o.o.o.( ,Xl mXxXOX.X/.B B B k k k k k !.@X=XjXBXSXh O o o o o ; ; g h z Q ( 7.~ Q 8.Q 0 T R ` GXGXGXGXGXGXGX",
"GXGXGXGXGXGXGXGXC.O.X.I X.X.I gXlXOXOXOX.X.XOX{.{.{.{.).k b b *XjXBXSXBXo o o o o ; g g g g O K K G Q K Q r E R -.GXGXGXGXGXGXGX",
"GXGXGXGXGXGXGXGXGXrXI X.I I X.p iXOXOXOXOXOX.XOX{.{.{.{./.~.^.b =XBXSXSX> o X o o ; - ; g g O x.Z 0 U K J i R ) GXGXGXGXGXGXGXGX",
"GXGXGXGXGXGXGXGXGX9 I.P I I I X.p pX4XOX.X{.{.{.{.{.].].].~.~.V ^.Q.SXSXjX; ; ; ; o o o $ % gXp H 8 K Z K 8.' u.GXGXGXGXGXGXGXGX",
"GXGXGXGXGXGXGXGXGXGX9 rXP I P P P P z.dX.X{.{.{.{.].{.(.(.(.~.~.^.~.Q.SXSX: ; ; - . . o x.z.p X.K J K T ~ ' u.GXGXGXGXGXGXGXGXGX",
"GXGXGXGXGXGXGXGXGXGXGX9 rXP p P P X.P p rX8X{.{.].(.(.(.(.(.).^.~.~.^.Q.BX!.= = = . q.iXp P o.a I U U wX' GXGXGXGXGXGXGXGXGXGXGX",
"GXGXGXGXGXGXGXGXGXGXGXGX9 rXo.P L X.t.w L p wXeX{.(.).(.(.).(./.~.~.^.^.-XBX# j qXwXu L w *.X.L L +.iX9 GXGXGXGXGXGXGXGXGXGXGXGX",
"GXGXGXGXGXGXGXGXGXGXGXGXGXGXC.k.p &.L L I p L u e.iXiX1X5X].].].).~.`.:X2XfXsXr.q L L I p p &.p b.C.GXGXGXGXGXGXGXGXGXGXGXGXGXGX",
"GXGXGXGXGXGXGXGXGXGXGXGXGXGXGXi I.X.p L u L L u L p p q ( r.C.Z.Z.z.r.( q u p p L L u L u p X.uXi GXGXGXGXGXGXGXGXGXGXGXGXGXGXGX",
"GXGXGXGXGXGXGXGXGXGXGXGXGXGXGXGXGXi.F.L u u u L u u p p u p p L U p p p p p p p u u u u U F.i.GXGXGXGXGXGXGXGXGXGXGXGXGXGXGXGXGX",
"GXGXGXGXGXGXGXGXGXGXGXGXGXGXGXGXGXGX8 z.K.I u i q p u u u u o.P L o.q u u u u u u i I K.C.8 GXGXGXGXGXGXGXGXGXGXGXGXGXGXGXGXGXGX",
"GXGXGXGXGXGXGXGXGXGXGXGXGXGXGXGXGXGXGXGX8 / rXN.+.u q q u q u u u i q p q q u I N.rX/ 8 GXGXGXGXGXGXGXGXGXGXGXGXGXGXGXGXGXGXGXGX",
"GXGXGXGXGXGXGXGXGXGXGXGXGXGXGXGXGXGXGXGXGXGXGX8 Q G.rXH.c.*.+.X.X.+.*.b.H.rXG.Q 8 GXGXGXGXGXGXGXGXGXGXGXGXGXGXGXGXGXGXGXGXGXGXGX",
"GXGXGXGXGXGXGXGXGXGXGXGXGXGXGXGXGXGXGXGXGXGXGXGXGXGXGXGX9 9 i H H i 0 8 GXGXGXGXGXGXGXGXGXGXGXGXGXGXGXGXGXGXGXGXGXGXGXGXGXGXGXGX",
"GXGXGXGXGXGXGXGXGXGXGXGXGXGXGXGXGXGXGXGXGXGXGXGXGXGXGXGXGXGXGXGXGXGXGXGXGXGXGXGXGXGXGXGXGXGXGXGXGXGXGXGXGXGXGXGXGXGXGXGXGXGXGXGX",
"GXGXGXGXGXGXGXGXGXGXGXGXGXGXGXGXGXGXGXGXGXGXGXGXGXGXGXGXGXGXGXGXGXGXGXGXGXGXGXGXGXGXGXGXGXGXGXGXGXGXGXGXGXGXGXGXGXGXGXGXGXGXGXGX"
};
