/* XPM */
static char *result[] = {
/* columns rows colors chars-per-pixel */
"32 32 96 2 ",
"   c #1F1B1C",
".  c #221D1F",
"X  c #24241F",
"o  c #26281F",
"O  c #2A301F",
"+  c #231F20",
"@  c #252221",
"#  c #272920",
"$  c #2B2829",
"%  c #2A3220",
"&  c #2E3B20",
"*  c #32312E",
"=  c #3C3839",
"-  c #30401E",
";  c #2F4421",
":  c #314820",
">  c #355321",
",  c #3A5621",
"<  c #3C6022",
"1  c #427324",
"2  c #427A24",
"3  c #497C22",
"4  c #447D2A",
"5  c #487E2E",
"6  c #4F4C4D",
"7  c #504C4D",
"8  c #5E5B5C",
"9  c #666264",
"0  c #7E7B7C",
"q  c #458325",
"w  c #468C24",
"e  c #4A8D25",
"r  c #478228",
"t  c #4A852D",
"y  c #478C28",
"u  c #508E24",
"i  c #4C9425",
"p  c #4E9A25",
"a  c #4D9428",
"s  c #519525",
"d  c #599724",
"f  c #539B25",
"g  c #599D25",
"h  c #52952A",
"j  c #539D29",
"k  c #4D8534",
"l  c #4D8D31",
"z  c #548A36",
"x  c #5B8F3B",
"c  c #569234",
"v  c #589434",
"b  c #5D9F35",
"n  c #5C923C",
"m  c #599839",
"M  c #55A225",
"N  c #5AA425",
"B  c #5CAA25",
"V  c #55A228",
"C  c #59A628",
"Z  c #5BAB29",
"A  c #5FB326",
"S  c #5FB228",
"D  c #5DA331",
"F  c #60A724",
"G  c #61AB24",
"H  c #68A43B",
"J  c #5A8D41",
"K  c #649441",
"L  c #77A657",
"P  c #75A15B",
"I  c #92B977",
"U  c #898787",
"Y  c #898788",
"T  c #9E9C9D",
"R  c #A19F9F",
"E  c #9BB28E",
"W  c #9DBA8C",
"Q  c #A0B793",
"!  c #A8BE93",
"~  c #AFAEAE",
"^  c #BBBABA",
"/  c #B5C7AB",
"(  c #C2CEB7",
")  c #C1CDB9",
"_  c #C5C4C4",
"`  c #C7C8C5",
"'  c #CFD9CA",
"]  c #DBDDD8",
"[  c #D2E0CB",
"{  c #D8E1D2",
"}  c #DDE4D8",
"|  c #E2E5DF",
" . c #E2E3E1",
".. c #EDECED",
"X. c #F3F3F2",
"o. c #FFFFFF",
/* pixels */
"e B M i p y M B i f f f B g p i a S s p i e G d i N d N M i e 5 ",
"M a M i i s V G f e f i M C e i i M f w e i N N w f a j M i t k ",
"j i Z M i s s V p i s i p M j i i s f s i i s M e i s i C a j k ",
"M M M M f p g a B N M f w M M j M f M M p f s M M M N i p M f k ",
"M C f f f f M a f f i N f M V a Z s i N i M p i V s M f f M e 4 ",
"p M i a f i V B i j i f N s f i p p w f i e M s f p a B f f i q ",
"w M C i e s j Z f i i e D v z n J c c l e e p f s e e V N i e e ",
"s f j p f i a f b P W / [ } ] | | ] } ' / W L b i i s a M w i i ",
"C s p f j i J E { X.o.o.o.o.o.o.o.o.o.o.o.o.X.{ E K f s f f f f ",
"M N i p m Q | o.o.X.| _ ^ T U U Y U T ^ _ | X.o.o. .! H f f i f ",
"f C i c ( o...~ 0 7 = $ @ . . .     . @ $ = 7 0 ~ ..o.) x f f i ",
"y p a / ..R 7 @ . . . . . . . + + + . . . . . . @ 6 T ../ h a w ",
"e f L ` 8 X . . . . + + + + + + + + + + + + + + . . X 8 ` P i i ",
"f i I 9   X + + + + + + + + + + + + + + + + + + . . . . 9 I M N ",
"M M x *   + @ + + + + + + + + + + + + + . + + + . + . . * K M N ",
"p N e O . . . + + + + + + + + + + + + + @ + + + + + . . - d V j ",
"e p M q % . . . + + + + + . . . + @ . + + + + + + . + & 4 e i e ",
"e a N s 2 : X X . . + + + X . X + + + + @ + + . . X : 2 t k 4 q ",
"M i f g f f 2 - & + . . + + . . . . . . . . X O , 3 f e e t q e ",
"C C f M f a M i s 1 > : & O o o # # % & ; < 1 s B s f M j e r i ",
"j S a j f f p s s f i f d w u q e u e d s M f p f i f f g g a f ",
"p C M i s e i M s i w i N i i i e C i i i e C f i i q C N a i f ",
"M j C w i s a M i w w s f p e i s g p w i i s M i w e h B i p i ",
"A C M p i i i i d s f e i M i d s e p i i i e f f f f e N i M M ",
"A A p p p p B f f p p F M f f i N p p p i N N p f i N N g f i s ",
"j B w i i p N f s d d N f M f i N f w j f f F f s f M N f N i p ",
"e M M w a i f G M p s d M s f s i p w i f e B N s d u N i f p p ",
"p i M i w s a M p e u s g p w i s j i w i i p N e i s f M e i i ",
"B f B f i p e f g p d i d M s p s i f i i i e N f d s s N p f f ",
"A C p f i p N g N g i M f f p f N i p p i M N N N f M f f p f N ",
"C B i f s i N f d g s N p f d i M s p f y C g g N d f f f g i p ",
"i M M s p e f G i f d g B f p a i N s s i e B d i N d N M s p p "
};
