/* XPM */
static char *result[] = {
/* columns rows colors chars-per-pixel */
"32 32 173 2 ",
"   c #171505",
".  c #330E02",
"X  c #2D1505",
"o  c #241D07",
"O  c #1E260A",
"+  c #1F2D0B",
"@  c #212508",
"#  c #222C0B",
"$  c #352608",
"%  c #352A0B",
"&  c #392909",
"*  c #23330C",
"=  c #2E320C",
"-  c #253A0F",
";  c #38360D",
":  c #2A3011",
">  c #313412",
",  c #373E14",
"<  c #441C06",
"1  c #571605",
"2  c #691504",
"3  c #781304",
"4  c #412007",
"5  c #572E0E",
"6  c #43320B",
"7  c #453E0B",
"8  c #4A3B0B",
"9  c #422C10",
"0  c #4C3513",
"q  c #5A3C17",
"w  c #65260A",
"e  c #6C2809",
"r  c #2A4412",
"t  c #2E4B13",
"y  c #304B15",
"u  c #375A15",
"i  c #345E17",
"p  c #3A6317",
"a  c #396518",
"s  c #3A6519",
"d  c #366B1B",
"f  c #3B6B1B",
"g  c #3C731D",
"h  c #3E7B1F",
"j  c #5F480D",
"k  c #554710",
"l  c #5E4A10",
"z  c #60460C",
"x  c #614C12",
"c  c #69421B",
"v  c #714E12",
"b  c #6B5413",
"n  c #6C531F",
"m  c #795718",
"M  c #715A19",
"N  c #42751B",
"B  c #417E1D",
"V  c #5E4E25",
"C  c #634F24",
"Z  c #685A20",
"A  c #447D2A",
"S  c #487E2E",
"D  c #7A662B",
"F  c #786A30",
"G  c #951A06",
"H  c #A31C06",
"J  c #B71F07",
"K  c #C32007",
"L  c #CD2307",
"P  c #DB2508",
"I  c #E12709",
"U  c #F72B0A",
"Y  c #845A15",
"T  c #8A5E16",
"R  c #8D6618",
"E  c #9F6611",
"W  c #8E711B",
"Q  c #93741C",
"!  c #9C7B1D",
"~  c #A26710",
"^  c #A46911",
"/  c #AA6D12",
"(  c #B07112",
")  c #B87714",
"_  c #BB7914",
"`  c #846E24",
"'  c #957821",
"]  c #977928",
"[  c #927A2D",
"{  c #897737",
"}  c #937F3B",
"|  c #3E8022",
" . c #45821E",
".. c #4A871C",
"X. c #4B8C1E",
"o. c #438423",
"O. c #468C24",
"+. c #4A8D25",
"@. c #478228",
"#. c #4A842D",
"$. c #478C28",
"%. c #4A8D29",
"&. c #469122",
"*. c #4D9325",
"=. c #4E9A25",
"-. c #4D9428",
";. c #4E9B28",
":. c #519625",
">. c #599724",
",. c #539C25",
"<. c #599D25",
"1. c #549628",
"2. c #549E29",
"3. c #4D8534",
"4. c #55A225",
"5. c #5AA425",
"6. c #5BAA25",
"7. c #55A328",
"8. c #59A628",
"9. c #5BAB2A",
"0. c #5FB326",
"q. c #5FB228",
"w. c #61AB24",
"e. c #61B327",
"r. c #93803B",
"t. c #A58424",
"y. c #AE8B25",
"u. c #AB8A29",
"i. c #B48F26",
"p. c #B08E2A",
"a. c #B99325",
"s. c #BC962C",
"d. c #A18631",
"f. c #BB9737",
"g. c #BB9836",
"h. c #C6851F",
"j. c #C9871E",
"k. c #CD891E",
"l. c #D78D1B",
"z. c #DC921D",
"x. c #CB8920",
"c. c #C29B2B",
"v. c #DD9522",
"b. c #C39E34",
"n. c #C29E3B",
"m. c #E09623",
"M. c #C8A02D",
"N. c #CEA83C",
"B. c #D4AB36",
"V. c #D6AE3C",
"C. c #DCB23D",
"Z. c #A68D42",
"A. c #A88F44",
"S. c #B59748",
"D. c #BE9E4A",
"F. c #C7A74B",
"G. c #D3AE46",
"H. c #D7B043",
"J. c #DBB443",
"K. c #DFB94F",
"L. c #CBAC52",
"P. c #D4B255",
"I. c #D9B657",
"U. c #E4BA44",
"Y. c #E6BE4D",
"T. c #E8BF49",
"R. c #E4BF58",
"E. c #E7C04F",
"W. c #E8C04C",
"Q. c #E9C355",
"!. c #E4C05B",
"~. c #ECC65C",
"^. c #EDC85F",
/* pixels */
"+.6.4.=.=.$.2.w.*.,.<.2.6.4.=.&.1.e.1.-.-.+.w.:.&.5.>.5.,.:.%.S ",
"4.-.4.*.*.1.2.w.2.&.:.*.7.5.+.*.-.4.,.O.X.*.5.6.+.:.*.2.4.-.#.3.",
";.&.0.4.*.:.:.5.,.X.*.=.=.4.,.*.+.=.:.=.*.*.:.4.*.=.:.*.4.=.2.3.",
"8.4.4.,.2.=.,.-.5.4.5.,.O.=.=.i + # # N =.,.:.,.5.,.5.*.,.2.2.3.",
"4.8.:.4.:.:.4.-.:.<.&.,.f # @ z ~ ^ ~ 7 d 7.-.=.5.:.4.4.,.4.+.A ",
"*.4.=.-.2.=.5.6.=.:.g @ 8 / / ) j.l.k.0 d =.4.=.:.=.-.5.2.:.*.o.",
"&.7.7.*.+.:.2.9.:.a 8 ^ _ j.x.x.v & & o a o.,.,.:.-.+.8.5.&.+.+.",
":.:.4.=.:.*.-.2.N 8 ( l.m.T $ $ M t.y.' = g -.4.&.*.:.-.7.+.*.*.",
"5.:.=.,.4.:.-.a 7 ( l.v.T x u.p.G.~.G.c . u O.5.:.,.2.1.<.:.,.4.",
"4.6.-.=.=.-.N 8 / l.v.T z n.~.~.^.^.V G I < B :.=.:.5.5.:.,.=.,.",
",.4.*.=.:.f 8 ( l.v.R z i.H.^.^.^.~.D 3 H . ..,.:.5.:.5.:.,.:.*.",
"+.=.=.&.| O / l.v.T x i.U.^.^.^.^.^.H.M 6 6 s >.*.=.:.5.,.-.:.O.",
"&.,.7.&.p 8 ) v.R x i.J.^.^.R.R.Q.~.^.G.N.b.% ..:.:.*.1.6.=.+.&.",
"2.:.:.X.+ ^ l.x.$ y.H.~.^.R.Y.U.U.Y.Q.Q.^.R.F N X.:.,.:.5.4.<.6.",
"<.,.;.*.@ / z.Y b b.^.L.` ] U.U.U.U.U.U.Y.^.I.> X.,.2.5.5.2.2.8.",
"=.5.=.p j _ j.& t.J.F.m 3 e ] H.U.U.U.U.U.R.I.> ..w.w.5.<.5.8.2.",
"O.,.:.# ^ z.k.& i.T.} 1 U G k B.U.U.U.U.U.E.Q.{ t :.:.7.,.+.&.%.",
"+.=.4.* ~ z.v M c.U.N.Y 1 w W B.U.U.U.T.U.U.^.P.: o.+.-.#.3.A @.",
"7.&.*.* ~ k.$ ! c.U.U.N.` W M.U.U.T.U.U.U.U.W.!.r.y :.+.+.#.@.O.",
"8.6.:.* E h.$ ! c.U.U.U.U.B.J.T.U.U.U.U.U.V.n C S.# X.4.1.+.@.=.",
"2.9.-.N ; & o Q c.J.U.U.U.U.J.J.U.U.U.U.J.n G H q M t ,.2.2.:.,.",
"-.9.8.&.h d s = q s.V.J.U.] 9 m s.V.U.U.J.8 J L 4 W @ :.5.:.*.4.",
"4.2.9.&.*.:.*. .f % = Z [ e K 2 b c.C.U.U.f.5 < W t.> O.6.:.=.*.",
"q.5.7.-.:.-.+.=.=.B o.s @ 1 P 2 l a.C.U.U.U.p.t.c.K.Z.- ,.=.,.,.",
"0.e.=.,.=.=.6.:.=.=.,.5.X.u X   k ! g.n.J.U.U.U.U.W.F., O.,.:.:.",
",.6.&.*.-.=.5.<.:.<.,.6.<.<.*.o.u O O * [ n.b.n.U.U.^.A.- ,.*.=.",
"&.6.4.O.-.*.,.w.,.,.>.:.4.=.,.:.o.&. .| t # * , d.f.D.r.r :.=.=.",
":.-.,.&.O.:.-.7.:.+.+.1.4.:.O.*.:.,.-.O.+.@.&.X.- # O r =.O.+.-.",
"6.,.6.>.*.=.&.,.<.:.X.=.,.4.:.=.:.:.,.&.=.:.+.6.*.>.:.+.5.:.4.,.",
"e.4.;.2.*.=.5.<.5.5.:.5.,.,.=.,.5.&.,.,.&.5.<.5.5.,.,.:.,.=.:.4.",
"8.6.&.2.:.-.5.,.,.>.1.5.:.,.<.*.5.:.=.:.+.4.5.<.5.>.4.,.,.<.:.=.",
"&.4.5.:.=.*.:.w.-.:.<.<.5.<.:.&.*.7.,.:.*.O.w.:.-.<.>.5.4.:.=.=."
};
