/* XPM */
static char *_a7980254bb44c39f3bc6995c5d2210ciBRUhNWkfypyrPLs[] = {
/* columns rows colors chars-per-pixel */
"16 16 232 2 ",
"   c #509B25",
".  c #519C25",
"X  c #4E9426",
"o  c #57A026",
"O  c #519925",
"+  c #529825",
"@  c #55A126",
"#  c #4D9626",
"$  c #529C27",
"%  c #4F9825",
"&  c #4D9225",
"*  c #569D24",
"=  c #4F9624",
"-  c #549B25",
";  c #519826",
":  c #4B872D",
">  c #529F25",
",  c #549F24",
"<  c #519825",
"1  c #529B25",
"2  c #529C24",
"3  c #499123",
"4  c #467E1E",
"5  c #446718",
"6  c #47751A",
"7  c #4D9223",
"8  c #539C25",
"9  c #529A24",
"0  c #519926",
"q  c #519C26",
"w  c #4E902C",
"e  c #519B25",
"r  c #549F26",
"t  c #509723",
"y  c #47731A",
"u  c #5E5C12",
"i  c #806011",
"p  c #9B6613",
"a  c #695411",
"s  c #437F1E",
"d  c #539D26",
"f  c #539B25",
"g  c #498B26",
"h  c #4F9B25",
"j  c #4E9526",
"k  c #509826",
"l  c #4F7019",
"z  c #946914",
"x  c #AB7016",
"c  c #8D6115",
"v  c #8A671D",
"b  c #6D5719",
"n  c #3E6419",
"m  c #4E9824",
"M  c #4D9525",
"N  c #509827",
"B  c #509925",
"V  c #4B9023",
"C  c #559E24",
"Z  c #4F9A25",
"A  c #4D9524",
"S  c #4E6D19",
"D  c #9A6D14",
"F  c #B97B1A",
"G  c #977221",
"H  c #BB9A3E",
"J  c #D1B04D",
"K  c #965B25",
"L  c #5F340C",
"P  c #498920",
"I  c #519A24",
"U  c #569D25",
"Y  c #509824",
"T  c #4B9625",
"R  c #436D1A",
"E  c #946913",
"W  c #B97C1A",
"Q  c #936F1C",
"!  c #CCA842",
"~  c #EEC95E",
"^  c #E6C25B",
"/  c #9F6A29",
"(  c #66360D",
")  c #487D1B",
"_  c #519824",
"`  c #559C24",
"'  c #529A25",
"]  c #4D9326",
"[  c #478D22",
"{  c #5B5811",
"}  c #B87818",
"|  c #8D691B",
" . c #C9A640",
".. c #E3C056",
"X. c #E7C050",
"o. c #E8C151",
"O. c #DEB94E",
"+. c #BE9E41",
"@. c #5D7223",
"#. c #4C9021",
"$. c #539925",
"%. c #549D25",
"&. c #529A26",
"*. c #529D24",
"=. c #467F1E",
"-. c #846112",
";. c #9C6A17",
":. c #A4842B",
">. c #BA8F3E",
",. c #965A22",
"<. c #C49C35",
"1. c #E4BB44",
"2. c #E5BC46",
"3. c #E9C153",
"4. c #898036",
"5. c #4B871E",
"6. c #58A225",
"7. c #57A025",
"8. c #559F26",
"9. c #4D9726",
"0. c #476C18",
"q. c #A56E15",
"w. c #8A6316",
"e. c #BF9C34",
"r. c #A36E28",
"t. c #832A09",
"y. c #A98227",
"u. c #E3BA44",
"i. c #E7BE49",
"p. c #BCA147",
"a. c #4E7321",
"s. c #4E9525",
"d. c #4D8E29",
"f. c #498927",
"g. c #539F27",
"h. c #486C18",
"j. c #8B5D12",
"k. c #7C5D15",
"l. c #D2AA36",
"z. c #D7AF40",
"x. c #B5902F",
"c. c #D4AD3A",
"v. c #E4BB45",
"b. c #D6AE40",
"n. c #AD8538",
"m. c #666627",
"M. c #478620",
"N. c #4D8D28",
"B. c #498926",
"V. c #55A228",
"C. c #4B8B22",
"Z. c #445B16",
"A. c #4F5414",
"S. c #9F8429",
"D. c #D1AA3E",
"F. c #C79E3A",
"G. c #A97E2C",
"H. c #CFA738",
"J. c #AC812F",
"K. c #8B280B",
"L. c #694714",
"P. c #47721A",
"I. c #539C26",
"U. c #4F9724",
"Y. c #58A526",
"T. c #4B9224",
"R. c #488922",
"E. c #46701B",
"W. c #566A1E",
"Q. c #6C4616",
"!. c #7D2107",
"~. c #96721D",
"^. c #DEB53E",
"/. c #CEA53C",
"(. c #99671E",
"). c #A7822A",
"_. c #5F7025",
"`. c #4E9524",
"'. c #519924",
"]. c #58A725",
"[. c #4E9925",
"{. c #4E9825",
"}. c #569E25",
"|. c #519923",
" X c #519822",
".X c #4C7D1D",
"XX c #445514",
"oX c #545915",
"OX c #7A7024",
"+X c #B19435",
"@X c #C09E37",
"#X c #DDB546",
"$X c #9D8B3C",
"%X c #487C1F",
"&X c #4F9923",
"*X c #519B24",
"=X c #4E9724",
"-X c #4B9225",
";X c #529824",
":X c #539725",
">X c #4D9425",
",X c #468921",
"<X c #3F7E1F",
"1X c #446C1D",
"2X c #4F6D1E",
"3X c #707026",
"4X c #6B6E2A",
"5X c #497F20",
"6X c #4D9725",
"7X c #57A525",
"8X c #519C24",
"9X c #4D9624",
"0X c #549A23",
"qX c #519724",
"wX c #539B24",
"eX c #549B24",
"rX c #4D8E20",
"tX c #4B8C21",
"yX c #54A025",
"uX c #4E9725",
"iX c #569E24",
"pX c #559A24",
"aX c #579C25",
"sX c #559D25",
"dX c #509724",
"fX c #519A25",
"gX c #509725",
"hX c #579F25",
"jX c #579D25",
"kX c #579E25",
"lX c #4F9824",
"zX c white",
/* pixels */
"  . X o O + @ # $ % & * = - ; : ",
"> , < 1 2 % 3 4 5 6 7 8 9 0 q w ",
"> e O r t y u i p a s e O d f g ",
"O h j k l z x c v b n m M N B V ",
"C Z A S D F G H J K L P I U 9 Y ",
"O T R E W Q ! ~ ^ / ( ) _ ` ' ] ",
"< [ { } |  ...X.o.O.+.@.#.$.%.&.",
"*.=.-.;.:.>.,.<.1.2.3.4.5.6.7.8.",
"9.0.q.w.e.r.t.y.1.u.i.p.a.s.d.f.",
"g.h.j.k.l.z.x.c.v.v.b.n.m.M.N.B.",
"V.C.Z.A.S.D.F.G.H.1.J.K.L.P.I.U.",
"Y.q T.R.E.W.Q.!.~.^./.(.)._.`.'.",
"].[.{.}.|. X.XXXoXOX+X@X#X$X%X&X",
"*X=X-X%.;X:X8 >X,X<X1X2X3X4X5X6X",
"7X8X9Xf 0XqXwXY '.=X=XeXrXtXI ' ",
"yX1 uXiXpXaXsXdXfXgXU.hXjXkX- lX"
};
