/* XPM */
static char *cf0ff17bc9404751f476c8f64b8f44dfbcX5zIKOPCzTiAZ6[] = {
/* columns rows colors chars-per-pixel */
"16 16 221 2 ",
"   c #509B25",
".  c #519C25",
"X  c #4E9426",
"o  c #57A026",
"O  c #519925",
"+  c #529825",
"@  c #55A026",
"#  c #4D9526",
"$  c #529C26",
"%  c #509825",
"&  c #4D9225",
"*  c #559D23",
"=  c #4F9624",
"-  c #549B25",
";  c #519826",
":  c #4B872D",
">  c #529F25",
",  c #549F24",
"<  c #519825",
"1  c #529B25",
"2  c #529C24",
"3  c #4F9623",
"4  c #569429",
"5  c #5C9D2B",
"6  c #519A24",
"7  c #519926",
"8  c #519C26",
"9  c #4E902C",
"0  c #519B25",
"q  c #549E26",
"w  c #529B24",
"e  c #549C26",
"r  c #437028",
"t  c #385B24",
"y  c #305C18",
"u  c #647C3A",
"i  c #6D9939",
"p  c #519924",
"a  c #539D26",
"s  c #539B25",
"d  c #498B26",
"f  c #4F9B25",
"g  c #4E9525",
"h  c #539C27",
"j  c #4F9825",
"k  c #4C9325",
"l  c #509428",
"z  c #616B4C",
"x  c #504944",
"c  c #243B16",
"v  c #3C582A",
"b  c #4B8924",
"n  c #4E9625",
"m  c #509827",
"M  c #509925",
"N  c #4B9023",
"B  c #559E24",
"V  c #4F9924",
"C  c #509A25",
"Z  c #4F9525",
"A  c #4D8C29",
"S  c #49862B",
"D  c #4E872C",
"F  c #B2A474",
"G  c #A3876D",
"H  c #2D3E1C",
"J  c #385625",
"K  c #4B8C21",
"L  c #519A23",
"P  c #569D25",
"I  c #529A24",
"U  c #509824",
"Y  c #4C9625",
"T  c #4E9327",
"R  c #4C7D31",
"E  c #455C3A",
"W  c #313E29",
"Q  c #5D574B",
"!  c #5A514A",
"~  c #282B24",
"^  c #212A1B",
"/  c #2C5211",
"(  c #4D9122",
")  c #559C25",
"_  c #529A25",
"`  c #4D9326",
"'  c #509724",
"]  c #4E9825",
"[  c #4D9624",
"{  c #4C882B",
"}  c #43553B",
"|  c #3F3F3F",
" . c #252426",
".. c #222224",
"X. c #232325",
"o. c #181718",
"O. c #070708",
"+. c #050B02",
"@. c #254711",
"#. c #509424",
"$. c #549E25",
"%. c #529A26",
"&. c #529C25",
"*. c #4C7731",
"=. c #414241",
"-. c #3F3D40",
";. c #2C2A29",
":. c #1C1A15",
">. c #1B1A15",
",. c #0F0E0D",
"<. c black",
"1. c #091204",
"2. c #427A1C",
"3. c #58A125",
"4. c #559F26",
"5. c #4D9626",
"6. c #4C8C27",
"7. c #42513B",
"8. c #403E42",
"9. c #675C47",
"0. c #7D6E3C",
"q. c #726536",
"w. c #211E10",
"e. c #214010",
"r. c #4C8C29",
"t. c #498A27",
"y. c #539F26",
"u. c #549C24",
"i. c #4F9127",
"p. c #44553A",
"a. c #41463F",
"s. c #43513B",
"d. c #4F643A",
"f. c #515340",
"g. c #4C4E3C",
"h. c #1F2816",
"j. c #1A340C",
"k. c #0B1605",
"l. c #070C02",
"z. c #1F3C0E",
"x. c #4B8A27",
"c. c #498A26",
"v. c #55A228",
"b. c #4E8E27",
"n. c #4B7630",
"m. c #4A7E2C",
"M. c #4B8A28",
"N. c #4B7530",
"B. c #374630",
"V. c #426130",
"C. c #34442B",
"Z. c #448121",
"A. c #427D1E",
"S. c #386B1A",
"D. c #336217",
"F. c #519824",
"G. c #4F9724",
"H. c #58A526",
"J. c #4D9125",
"K. c #4E9126",
"L. c #4E9523",
"P. c #4E9524",
"I. c #4B7531",
"U. c #38482E",
"Y. c #45672F",
"T. c #38472F",
"R. c #488922",
"E. c #519A25",
"W. c #4B8E23",
"Q. c #58A725",
"!. c #4E9925",
"~. c #4E9824",
"^. c #569E24",
"/. c #529924",
"(. c #569D24",
"). c #4B6C33",
"_. c #39502B",
"`. c #4B7A2C",
"'. c #394632",
"]. c #488723",
"[. c #579F25",
"{. c #549C25",
"}. c #4F9823",
"|. c #519B24",
" X c #4E9724",
".X c #4B9225",
"XX c #549D25",
"oX c #529824",
"OX c #509224",
"+X c #2F471F",
"@X c #2B451B",
"#X c #407322",
"$X c #417720",
"%X c #55A025",
"&X c #519624",
"*X c #539925",
"=X c #4D9625",
"-X c #57A525",
";X c #519C24",
":X c #559B23",
">X c #498920",
",X c #22420F",
"<X c #2E5814",
"1X c #366617",
"2X c #1D390D",
"3X c #43811E",
"4X c #569E25",
"5X c #569C25",
"6X c #539A25",
"7X c #54A025",
"8X c #4E9725",
"9X c #559A24",
"0X c #569B24",
"qX c #519723",
"wX c #4E9323",
"eX c #4D9123",
"rX c #4E9624",
"tX c #579C25",
"yX c #579D25",
"uX c #4F9824",
"iX c white",
/* pixels */
"  . X o O + @ # $ % & * = - ; : ",
"> , < 1 2 %   % = 3 4 5 6 7 8 9 ",
"> 0 O q w 1 e r t y u i p a s d ",
"O f g h j k l z x c v b n m M N ",
"B V C Z A S D F G H J K L P I U ",
"M Y n T R E W Q ! ~ ^ / ( ) _ ` ",
"' ] [ { } |  ...X.o.O.+.@.#.$.%.",
"2 &.O *.=.-.;.:.>.,.<.<.1.2.3.4.",
"5.1 6.7.8.8.9.0.q.w.<.<.<.e.r.t.",
"y.u.i.p.a.s.d.f.g.h.j.k.l.z.x.c.",
"v.$ b.n.m.M.N.B.V.C.Z.A.S.D.F.G.",
"H.8 J.K.L.P.I.U.Y.T.R.E.P.W.$ F.",
"Q.!.~.^./.(.)._.`.'.].^./.[.{.}.",
"|. X.XXXoXOX+X@X#X^ $X%X&X*XM =X",
"-X;X[ s :X>X,X<X1X2X3X4X5X6Xw _ ",
"7X1 8X^.9X0XqXwX= eXrX[.tXyXs uX"
};
