/* XPM */
static char *result[] = {
/* columns rows colors chars-per-pixel */
"74 64 248 2 ",
"   c #1C0102",
".  c #1F0908",
"X  c #260708",
"o  c #371515",
"O  c #300C0C",
"+  c #3E211F",
"@  c #500F12",
"#  c #6C1515",
"$  c #5B3213",
"%  c #572E10",
"&  c #7C2701",
"*  c #653916",
"=  c #713116",
"-  c #7B1B24",
";  c #6D1423",
":  c #4E382F",
">  c #722D28",
",  c #4E1F20",
"<  c #77451C",
"1  c #6F421C",
"2  c #784A24",
"3  c #6D4631",
"4  c #182660",
"5  c #702F50",
"6  c #5C3769",
"7  c #264868",
"8  c #75524C",
"9  c #4A5368",
"0  c #5F5F67",
"q  c #911C1A",
"w  c #842C00",
"e  c #8D3405",
"r  c #891D25",
"t  c #A81D24",
"y  c #BD1B2C",
"u  c #B81C26",
"i  c #A91F37",
"p  c #842125",
"a  c #8C2527",
"s  c #902C31",
"d  c #AC292D",
"f  c #BD232A",
"g  c #B62F33",
"h  c #C41D26",
"j  c #CC1D26",
"k  c #C21C2D",
"l  c #CA1C2C",
"z  c #DB1C27",
"x  c #D51D29",
"c  c #CD1E30",
"v  c #D71E31",
"b  c #E31D29",
"n  c #EB1C28",
"m  c #E51B27",
"M  c #F31C29",
"N  c #F91D2B",
"B  c #C4242C",
"V  c #CC242C",
"C  c #C7262D",
"Z  c #D2232C",
"A  c #DC222C",
"S  c #CA2B34",
"D  c #D72534",
"F  c #D7343D",
"G  c #C9323D",
"H  c #E8222D",
"J  c #F9242D",
"K  c #E72939",
"L  c #FD2B33",
"P  c #F92832",
"I  c #FE3638",
"U  c #EA3336",
"Y  c #834C1E",
"T  c #957A06",
"R  c #8E7509",
"E  c #8B5323",
"W  c #885526",
"Q  c #965C27",
"!  c #8F4C34",
"~  c #A94437",
"^  c #9D632B",
"/  c #9E6931",
"(  c #A3642C",
")  c #A46833",
"_  c #8F2F4E",
"`  c #B7344C",
"'  c #DB3742",
"]  c #CC354A",
"[  c #FE3C4B",
"{  c #F83544",
"}  c #EA3544",
"|  c #8C5351",
" . c #A85852",
".. c #95675A",
"X. c #B86A5A",
"o. c #A96954",
"O. c #98736B",
"+. c #B57568",
"@. c #FF414F",
"#. c #FC4644",
"$. c #F95350",
"%. c #C46A5A",
"&. c #C77867",
"*. c #D37867",
"=. c #D27474",
"-. c #FD6D69",
";. c #DD535E",
":. c #ED4337",
">. c #6F8E50",
",. c #9C8105",
"<. c #AC8D07",
"1. c #A48507",
"2. c #B89607",
"3. c #AF9113",
"4. c #949330",
"5. c #AEAA12",
"6. c #C19D08",
"7. c #DC8514",
"8. c #CBA608",
"9. c #D2AC08",
"0. c #DBB309",
"q. c #D3A710",
"w. c #E6BB08",
"e. c #D3CE0A",
"r. c #F9C906",
"t. c #FEDC02",
"y. c #FFD402",
"u. c #E6C705",
"i. c #FFE002",
"p. c #F7E700",
"a. c #FAF308",
"s. c #BA8373",
"d. c #A9847A",
"f. c #95B042",
"g. c #D98775",
"h. c #CD8A78",
"j. c #E28B7A",
"k. c #E3917E",
"l. c #FC847E",
"z. c #E9EC5A",
"x. c #013C8C",
"c. c #000C8F",
"v. c #044799",
"b. c #11478B",
"n. c #255090",
"m. c #004BAC",
"M. c #0149A4",
"N. c #0252A8",
"B. c #004EB3",
"V. c #0051B6",
"C. c #0053BC",
"Z. c #055AB6",
"A. c #1152A6",
"S. c #0568B9",
"D. c #2E639E",
"F. c #666093",
"G. c #0056C3",
"H. c #0059C6",
"J. c #005BCA",
"K. c #0057C8",
"L. c #005FD1",
"P. c #0062CD",
"I. c #0062D5",
"U. c #0068DB",
"Y. c #0474DE",
"T. c #0075EA",
"R. c #0171E8",
"E. c #BA7989",
"W. c #1C9AE5",
"Q. c #2FD1FB",
"!. c #55A1BA",
"~. c #8D8A98",
"^. c #9798A7",
"/. c #9EA4B4",
"(. c #9DA0AF",
"). c #A2A8B8",
"_. c #B6B3BF",
"`. c #B4AAB5",
"'. c #AC9297",
"]. c #C79888",
"[. c #DA9785",
"{. c #D4898B",
"}. c #E49481",
"|. c #E89987",
" X c #F4928E",
".X c #D8A796",
"XX c #D4A897",
"oX c #E8A38E",
"OX c #E9A894",
"+X c #F5AA96",
"@X c #EAB39C",
"#X c #F7B59D",
"$X c #F3A08D",
"%X c #D4B0B6",
"&X c #ECB7A4",
"*X c #F8BCA4",
"=X c #F7B2B1",
"-X c #FBC5AA",
";X c #F8C6AB",
":X c #FDCCB3",
">X c #F4C6B2",
",X c #FCD2B4",
"<X c #FDD5BC",
"1X c #FCDABC",
"2X c #F2D4B9",
"3X c #F0CEB2",
"4X c #FBE2BE",
"5X c #ABB4C4",
"6X c #AEBACA",
"7X c #A7B1C2",
"8X c #B2BDCD",
"9X c #B5B6C2",
"0X c #A6AFC0",
"qX c #8EBFE4",
"wX c #C5BDC4",
"eX c #B6C1CC",
"rX c #B5C2D2",
"tX c #B9C5D5",
"yX c #BDCAD9",
"uX c #BBC8D8",
"iX c #AEC2CF",
"pX c #ADD8EB",
"aX c #C1CDDC",
"sX c #C6C6D1",
"dX c #C6D1DE",
"fX c #D7D1D7",
"gX c #FDD9C3",
"hX c #EFD4D1",
"jX c #FEE5C8",
"kX c #FAEAD6",
"lX c #FFF6D9",
"zX c #C9D6E3",
"xX c #D7DBE5",
"cX c #D9E3ED",
"vX c #DDE8F2",
"bX c #E6E5EB",
"nX c #F6EAEA",
"mX c #E4EBF3",
"MX c #EAEBF2",
"NX c #E7EBF4",
"BX c #EBF2F7",
"VX c #F5F4F5",
"CX c #F2F6FA",
"ZX c #F6FAFC",
"AX c #FBFCFD",
"SX c #FEF4F4",
"DX c #F6F1ED",
"FX c None",
/* pixels */
"FXFXFXFXFXFXFXFXFXFXFXFXFXFXFXFXFXFXFXFXFXFXFXFXFXFXFXFXFXFXFXFXFXFXFXFXFXFXFXFXFXFXFXFXFXFXFXFXFXFXFXFXFXFXFXFXFXFXFXFXFXFXFXFXFXFXFXFXFXFXFXFXFXFX",
"FXFXFXFXFXFXFXFXFXFXFXFXFXzXAXVXFXFXmXFXFXFXFXFXFXFXFXFXFXFXFXFXFXFXFXFXFXFXFXFXFXFXFXFXFXFXC V Z A A H H K FXFXFXFXFXFXFXFXFXFXFXFXFXFXFXFXFXFXFXFX",
"FXFXFXFXFXFXFXFXFXFXFXcX5XcXAXbXeXBXCXBXFXFXFXFXFXFXFXFXFXFXFXFXFXFXFXFXFXFXFXFXFXFXFXC V Z A A H H H P P P L L FXFXFXFXFXFXFXFXFXFXFXFXFXFXFXFXFXFX",
"FXFXFXFXFXFXFXFXFXFXaX).6XcXZX_.yXBXAXCXFXFXFXFXFXFXFXFXFXFXFXFXFXFXFXFXFXFXFXFXFXC Z Z Z A A H H H H P L L L I I I FXFXFXFXFXFXFXFXFXFXFXFXFXFXFXFX",
"FXFXFXFXFXFXFXFXFXFX8X/.8XxXMX^.yXBXZXBXFXFXFXFXFXFXFXFXFXFXFXFXFXFXFXFXFXFXFXS V Z Z Z A A H m H J J J P L I I [ #.I FXFXFXFXFXFXFXFXFXFXFXFXFXFXFX",
"FXFXFXFXFXFXFXFXFXrX0X/.iXzXmX~.tXmXZXCXFXFXFXFXFXFXFXFXFXFXFXFXFXFXFXFXFXFXZ Z Z Z Z A A H m n M M J J L L I #.#.#.#.[ FXFXFXFXFXFXFXFXFXFXFXFXFXFX",
"FXFXFXFXFXFXFXFXFXuX)./.8XaXcX~.rXvXZXCXFXFXFXFXFXFXFXFXFXFXFXFXFXFXFXFXD S V Z Z Z A H m H n M M N J J L [ -.SXSXSX X@.FXFXFXFXFXFXFXFXFXFXFXFXFXFX",
"FXFXFXFXFXFXFXFXFXyX_.).8XeXdX~.rXzXCXCXMXFXFXFXFXFXFXFXFXFXFXFXFXFXFXD V V V Z Z A A m m m M M N N J L I $.AXAXI AXSX+X#.FXFXFXFXFXFXFXFXFXFXFXFXFX",
"FXFXFXFXFXFXFXFXFXrX6X).).rXuX~.tXaXMXCXNXFXFXzXcXBXFXFXFXFXFXFXFXFXS V B V V V A A m m n M M M J J L I I nXAX-.I :X{ nX$.FXFXFXFXFXFXFXFXFXFXFXFXFX",
"FXFXFXFXFXFXFXFX5X(.rX).~.yX5X^.8XrXcXCXBXFXaXzXcXMXBXFXFXFXFXFXFXS C C V j Z z z z H m n n M M J L L I #.AX=XJ hXI -.:X-.FXFXFXFXFXFXFXFXFXFXFXFXFX",
"FXFXFXFXFXFXFXFX6X^.uX5X^.yX6X(.~.rXzXMXMXxXyXzXcXBXFXFXFXFXFXC B B C h V j j j z m m m n n M J J L I #.#.jXJ +XAX X=X=X XFXFXFXFXFXFXFXFXFXFXFXFXFX",
"FXFXFXFXFXFXFXFX6X^.eX6X).^.uX).~.8XtXxXcXaXaXzXcXMXFXFXFXS C C f B B j j j z z z m m m n M M J L I U #.{ nX$.SXAXAX#X X-.$.FXFXFXFXFXFXFXFXFXFXFXFX",
"FXFXFXFXFXFXFXFXtX).~.tX0X~.rX5X/.6XrXdXdXuXzXxXvXMXFXFXS S C f B h h h j j z z z m m m m n n M U U U U U {.fXfXbXnXl.|.-.$.FXFXFXFXFXFXFXFXFXFXFXFX",
"FXFXFXFXFXFXFXFXyX5X~.tX5X).tX8X8X6X8X).^.rXzXcXMXFXFXF C B f f u h h B h j j Z z z z z z z j z z z b m m H H H *.fXhX-.$.FXFXFXFXFXFXFXFXFXFXFXFXFX",
"FXFXFXFXFXFXFXFXdX6X^.5X6X8X8XtXrX6X0X).8X8XzXcXMXFXFXS C f u u u u u h u h h j j j j h j j j z j z z z z z z H H H U :.$.FXFXFXFXFXFXFXFXFXFXFXFXFX",
"FXFXFXFXFXFXFXFXFXtX).8X8X8X8XtX8X8X5XtX8XrXdXvXDXFXF D B f u t f u f t f u u u u u j j j j h O @ @ # b b H J P L I I L I FXFXFXFXFXFXFXFXFXFXFXFXFX",
"FXFXFXFXFXFXFXFXFXzX8XrX8X8XtX8XtX8XtXtX8X8XaXcXMXFXF S V u t t t t t t u t d q d d d g g ~   .     X # s p p a p a a g #.#.FXFXFXFXFXFXFXFXFXFXFXFX",
"FXFXFXFXFXFXFXFXFXzXuX8X8X8X8X8X8X8X8XuXtX8XuXzXMXVXFXS C *.oXg.s q t q & w & p X.X.X.%.*.%.+.h.*.+.  X j.j.*.s - > - p - a g $.FXFXFXFXFXFXFXFXFXFX",
"FXFXFXFXFXFXFXFXFXFXyX8X8X8X6X8X8XtXuXuXuX8X8XzXcXbXFXF &X-X:X-X;X+.# w & w e ! X.s.h.*.g.k.k.oX|.|.[.  |.$X$X|.X.X @ p p p a a $.FXFXFXFXFXFXFXFXFX",
"FXFXFXFXFXFXFXFXFXFXaXtX8X8X6X6XtXuXyXuXtX8X8XaXcXfXDX&X*X#X|.k.#X;X& & & w e ~ j.k.+X#X*X:X,X,XhX2X-XO.#X#X#X+XX   O q p p a a a FXFXFXFXFXFXFXFXFX",
"FXFXFXFXFXFXFXFXFXFXzXuX8X8X6X6X8XyXaXyX8X8X8XaXxX%XCXhX,X;X#XoX}.#Xo.& & & e Q k.+X#X-X:X1X2XyXBXAXkX,X4XjX4X]...$XO ; - p p q s FXFXFXFXFXFXFXFXFX",
"FXFXFXFXFXFXFXFXFXFXFXaXtX8X6X8X8XaXaXuXuX6X8XyX`.bXZXgX4X-X-X+Xk.+Xo.& & & w Y k.#X-X-X,XgXW.W.Q.ZXAX;X4XjX4X4X:X#X@ # - - - - FXFXFXFXFXFXFXFXFXFX",
"FXFXFXFXFXFXFXFXFXFXFXFXaXtX8X8X8XdXdXyX8X8X8X).9XVXAX$.4X,X;XoXh.$Xs.w & & e Y k.#X-X,X<XeX4 pX7 pXZX;X4XjXjXSXAX*XFX# # # FXFXFXMXMXMXCXFXFXFXFXFX",
"FXFXFXFXFXFXFXFXFXFXFXFXzXaXuXtXuXaXzXaX8X5X^.5XmXCX X$.l.4X3X@Xh.|.s.e & w & / k.#X-X,XhX!.4 c.b.vXCX3XjXjXqXQ.AX<XFXFXFXFXFXxXxXMXbXVXCXmXFXFXFXFX",
"FXFXFXFXFXFXFXFXFXFXFXFXFXzXzXaXyXyXaXtX0X~.9XxXvX%X[ [ @.gX2X@Xh.oXh.Y w Y o.k.;X:X2X,X2XW.4 c.W.DXfX;X4XkX9 D.nXFXFXFXFXFXbXsXNXxXVXAXVXcXFXFXFXFX",
"FXFXFXFXFXFXFXFXFXFXFXFXFXFXFXzXaXaX8X(.).8XaXdX%X{ [ [ @.@.3X@Xh.oXh.+.w  .oX#X;X1XjX3X$ 9 S.P.qXbXoX;X3X2XF.~.gXFXFXFXxXxXxXbXfXVXAXZXMXFXFXFXFXFX",
"FXFXFXFXFXFXFXFXFXFXFXFXFXFXFXFX5X5X5X8X8X8X8XE.K { [ [ @.@.-.=X#X+Xk.g.h.k.#X*X:X1XgXO.  X 0 7XfXXXOXOX@X#X=X,XgXgX:XzXdXbXxXbXMXAXAXZXxXFXFXFXFXFX",
"FXFXFXFXFXFXFXFXFXFXFXFXFXFXFXFXFXdXaXyX8X`.` v K } { [ [ [ [ l.#XoXk.k.oXoX@X*X:X1X3X8       3 @X@XoXoX@X;X:X<XgXjXkXjXbXVXAXSXAXAXZXcXFXFXFXFXFXFX",
"FXFXFXFXFXFXFXFXFXFXFXFXFXFXFXFXFXFX_.+.g k k c v K } { [ [ @.@.k.k.k.k.k.oX#X*X:X1X3X8   .     . 8 h.XX@X*X:XgXjXkXlXlXSXAXAXAXAXZXMXFXFXFXFXFXFXFX",
"FXFXFXFXFXFXFXFXFXFXFXFXFXFXFXFXFXFXFXk k k k k c v K { { [ [ [ $.k.k.k.k.oXOX*X-X,X2Xd.. O X       d.XX@X&X:X<XjXlXlXlXlXAXAXAXZXCXzXFXFXFXFXFXFXFX",
"FXFXFXFXFXFXFXFXFXFXFXFXFXFXFXFXi.i.y.FXk k k k c c D } { [ [ [ #.|.j.j.k.oXOX#X*X:X<X3Xd.o . . . . | h..X&X-X:X1XjXlXlXlXAXAXAXAXBXFXFXFXCXCXBXFXFX",
"FXFXFXFXFXFXFXFXFXFXFXFXFXFXi.i.i.t.y.r.r.k k k k c v K K { [ [ [ %.j.j.k.k.k.OX#X-X:X<X2X].. X X . o ].].XX@X-X:XjXjXkXnXVXAXAXAXAXZXZXZXZXZXZXBXFX",
"FXFXFXFXFXFXFXFXFXFXFXFXFXi.i.i.t.t.y.y.t.r.k l k k c v K } { [ [ q g.g.g.j.k.+X+X*X;X,X:X@X8 X O , X ..].].XX&X;X:XgXgXbXbXVXAXAXAXZXZXZXCXBXvXzXFX",
"FXFXFXFXFXFXFXFXFXFXFXFXi.i.i.t.9.<.1.<.8.u.7.C k k c c v K { { { d a *.g.g.k.$XOX#X-X-X&Xd.].8 o X o . ..].'.].XX&X&X=XbXfXbXVXZXZXCXBXvXzXdXuXiXFX",
"FXFXFXFXFXFXFXFXFXFXFXi.i.i.6.R T ,.<.2.2.1.T S y y k c v K { { { g q s *.g.j.k.$X+X#X:X .'._.`.].3 X , o o 8 O.O.8 i oXhXbXxXbXmXmXcXcXyXiXiXFXFXFX",
"FXFXFXFXFXFXFXFXFXFXi.i.t.R R T T ,.<.2.<.<.T T y k k k c v v { { S u 4 ! *.g.k.|.+X#X,X_ ; > `.pX8X8 + o X , O o S { ;.%XbXsXzXzXzXyXrXiXFXFXFXFXFX",
"FXFXFXFXFXFXFXFXFXFXt.t.R R T T 1.2.2.8.<.<.<.T / k k k k l v K U F d x.4  .g.g.k.$XOX,X ._ ; ; @ 8 (.| ..8 O.%X@.{ { ' %XvX0X6XiXiXrXFXFXFXFXFXFXFX",
"FXFXFXFXFXFXFXFXi.y.y.T R R T ,.<.2.8.9.6.6.<.3.5 y k k k k c v K D 5 v.4 4 ) g.g.k.oX#X=X] r r ; ; ; ...XgX>X$.{ K v ] %XcX/.6XrXuXFXFXFXFXFXFXFXFX",
"FXFXFXFXFXFXt.t.r.u.<.T T 1.1.<.6.9.0.0.6.6.T M.u u y y y y l v H D b.N.v.: d %.h.g.[.OX=X{.] ` ; r {.2XgX=X} D v c c =.9XzX6XzXFXFXFXFXFXFXFXFXFXFX",
"FXFXFXFXFXu.,.T T <.1.<.<.<.2.2.8.9.w.w.q.4.m.m.y u u y y l v v K _ I.N.N.6 d ~ +.=.h.[.{.gXgXoXOXgXgX>X=.v c k y y  .`.6XFXFXFXFXFXFXFXFXFXFXFXFXFX",
"FXFXFXFX,.R ,.1.1.<.2.2.2.2.6.6.8.0.w.r.4.C.M.m._ k y l l x v K K K.T.C.N.5 G g g +.s.h.oX].&XgXgX=X.X] k k k k ] 9X5X6XFXFXFXFXFXFXFXFXFXFXFXFXFXFX",
"FXFXFXR <.6.2.2.2.2.2.8.8.9.9.8.9.0.w.r.G.m.m.M.A.i l l l x K K 6 T.W.T.A._ ' ] G G o.s.].@X@X#X}.G k k k B FXFXFXFXFXFXFXFXFXFXFXFXFXFXFXFXFXFXFXFX",
"FXFXFXFXFXFXFXw.q.8.6.8.9.0.0.0.9.e.0.D.C.m.m.C.J.H.A.6 _ _ 6 A.I.T.T.T.R.` ' ' F ' ' '  .F.D.B y y k FXFXFXFXFXFXFXFXFXFXFXFXFXFXFXFXFXFXFXFXFXFXFX",
"FXFXFXFXFXFXFXFXr.u.3./ Q / q.0.8.0 C.G.B.m.C.K.K.K.L.P.K.L.U.K.>.e.f.T.W.` ' F ' ' ' ' 5 M.N.V FXFXFXFXFXFXFXFXFXFXFXFXFXFXFXFXFXFXFXFXFXFXFXFXFXFX",
"FXFXFXFXFXFXFXFXFXQ $ * = 1 3 D.K.m.m.C.C.C.G.G.K.G.H.J.J.H.P.0 a.a.a.XXW.T.F.] ' ' } ' 6 v.N.FXFXFXFXFXFXFXFXFXFXFXFXFXFXFXFXFXFXFXFXFXFXFXFXFXFXFX",
"FXFXFXFXFXFXFXFX* $ : b.N.G.K.G.m.m.M.C.C.C.G.G.K.H.K.J.P.P.Z.5.p.a.a.z.P.T.T.U.n.6 5 7 b.m.N.FXFXFXFXFXFXFXFXFXFXFXFXFXFXFXFXFXFXFXFXFXFXFXFXFXFXFX",
"FXFXFXFXFXFXFX$ * b.m.H.H.H.K.B.M.B.V.G.C.G.G.G.H.H.J.J.K.C.m.4.e.p.p.e.P.R.R.T.Y.P.Z.Z.v.C.e.FXFXFXFXFXFXFXFXFXFXFXFXFXFXFXFXFXFXFXFXFXFXFXFXFXFXFX",
"FXFXFXFXFX2 % * v.V.G.G.H.C.B.B.B.B.C.G.C.C.C.C.G.H.H.K.J.J.v.v.5.e.5.Z.U.Y.U.R.R.R.U.I.m.f.a.z.FXFXFXFXFXFXFXFXFXFXFXFXFXFXFXFXFXFXFXFXFXFXFXFXFXFX",
"FXFXFXFX3 $ 1 7 C.G.C.C.C.C.V.C.C.C.C.G.C.G.C.H.G.G.G.H.H.K.V.x.v.v.m.C.L.U.U.U.U.U.U.I.M.e.a.a.FXFXFXFXFXFXFXFXFXFXFXFXFXFXFXFXFXFXFXFXFXFXFXFXFXFX",
"FXFXFX3 * = < m.V.C.C.C.C.C.C.C.C.C.C.G.G.C.G.C.G.G.G.H.G.H.K.C.C.C.C.I.L.L.L.I.L.U.U.I.M.e.p.FXFXFXFXFXFXFXFXFXFXFXFXFXFXFXFXFXFXFXFXFXFXFXFXFXFXFX",
"FXFX2 * = W 9 C.C.C.C.C.C.C.G.G.G.G.G.G.G.G.C.C.C.C.G.G.K.G.G.H.K.J.J.J.L.L.L.I.L.L.L.K.m.4.FXFXFXFXFXFXFXFXFXFXFXFXFXFXFXFXFXFXFXFXFXFXFXFXFXFXFXFX",
"FXFX* < Y Y 7 C.C.G.G.C.G.G.G.G.G.G.G.G.K.C.C.C.C.G.C.C.C.G.C.G.K.H.H.K.K.K.J.K.L.L.J.C.x.m.FXFXFXFXFXFXFXFXFXFXFXFXFXFXFXFXFXFXFXFXFXFXFXFXFXFXFXFX",
"FX$ < E E E v.G.G.G.G.G.G.G.G.G.G.G.G.G.K.G.G.C.G.V.G.C.C.C.C.C.C.C.G.G.G.K.K.K.K.G.G.K.B.FXFXFXFXFXFXFXFXFXFXFXFXFXFXFXFXFXFXFXFXFXFXFXFXFXFXFXFXFX",
"FX* Y E Q E b.G.G.G.G.G.G.G.G.G.K.K.H.K.K.K.G.C.C.C.V.C.C.C.C.C.C.C.C.C.C.C.C.G.G.G.G.G.C.FXFXFXFXFXFXFXFXFXFXFXFXFXFXFXFXFXFXFXFXFXFXFXFXFXFXFXFXFX",
"FX< Y E Q Y 7 G.G.G.K.K.G.K.K.K.G.H.K.K.K.K.K.G.G.C.C.V.V.C.V.V.B.B.B.B.B.B.V.B.V.V.B.B.FXFXFXFXFXFXFXFXFXFXFXFXFXFXFXFXFXFXFXFXFXFXFXFXFXFXFXFXFXFX",
"FXY W ^ Q < $ C.G.G.G.K.K.G.K.G.K.G.K.H.K.K.K.K.H.G.C.C.V.B.C.V.B.B.m.B.B.B.B.B.B.B.B.FXFXFXFXFXFXFXFXFXFXFXFXFXFXFXFXFXFXFXFXFXFXFXFXFXFXFXFXFXFXFX",
"FXY Q Q Q Y 1 M.K.K.K.G.H.H.H.K.K.K.K.K.K.C.C.K.G.H.G.C.C.C.B.B.C.C.B.m.m.m.m.m.m.m.FXFXFXFXFXFXFXFXFXFXFXFXFXFXFXFXFXFXFXFXFXFXFXFXFXFXFXFXFXFXFXFX",
"FXE Q Q Q Q W 3 C.G.H.G.H.G.A.b.B.B.m.m.m.m.B.B.G.G.G.G.G.C.C.C.C.B.V.V.V.B.m.m.B.FXFXFXFXFXFXFXFXFXFXFXFXFXFXFXFXFXFXFXFXFXFXFXFXFXFXFXFXFXFXFXFXFX",
"FXFXQ ^ ^ / Q W 2 9 n.V.: $ * $ m.B.B.B.C.V.C.C.G.G.H.G.H.H.H.G.C.G.C.C.C.C.B.FXFXFXFXFXFXFXFXFXFXFXFXFXFXFXFXFXFXFXFXFXFXFXFXFXFXFXFXFXFXFXFXFXFXFX",
"FXFXFX( ( ) ) ^ Q E FXFX* < < 2 1 B.C.K.G.G.K.G.G.G.G.H.G.G.G.H.K.G.H.K.G.FXFXFXFXFXFXFXFXFXFXFXFXFXFXFXFXFXFXFXFXFXFXFXFXFXFXFXFXFXFXFXFXFXFXFXFXFX",
"FXFXFXFXFX( ( ( FXFXFXFXY E W Q W 2 9 A.Z.FXFXFXFXFXFXFXFX1.1.1.FXFXFXFXFXFXFXFXFXFXFXFXFXFXFXFXFXFXFXFXFXFXFXFXFXFXFXFXFXFXFXFXFXFXFXFXFXFXFXFXFXFX",
"FXFXFXFXFXFXFXFXFXFXFXFXFXQ Q / Q Q W Q FXFXFXFXFXFXFXFXFXFXFXFXFXFXFXFXFXFXFXFXFXFXFXFXFXFXFXFXFXFXFXFXFXFXFXFXFXFXFXFXFXFXFXFXFXFXFXFXFXFXFXFXFXFX",
"FXFXFXFXFXFXFXFXFXFXFXFXFXFX( ) ( Q FXFXFXFXFXFXFXFXFXFXFXFXFXFXFXFXFXFXFXFXFXFXFXFXFXFXFXFXFXFXFXFXFXFXFXFXFXFXFXFXFXFXFXFXFXFXFXFXFXFXFXFXFXFXFXFX",
"FXFXFXFXFXFXFXFXFXFXFXFXFXFXFXFXFXFXFXFXFXFXFXFXFXFXFXFXFXFXFXFXFXFXFXFXFXFXFXFXFXFXFXFXFXFXFXFXFXFXFXFXFXFXFXFXFXFXFXFXFXFXFXFXFXFXFXFXFXFXFXFXFXFX"
};
