/* XPM */
static char *result[] = {
/* columns rows colors chars-per-pixel */
"32 32 127 2 ",
"   c #010101",
".  c #060904",
"X  c #090A06",
"o  c #0D1604",
"O  c #111C06",
"+  c #141414",
"@  c #181719",
"#  c gray10",
"$  c #112309",
"%  c #162A0B",
"&  c #19310C",
"*  c #1F3A0D",
"=  c #302B17",
"-  c #26361E",
";  c #293D1D",
":  c #3E3618",
">  c #252425",
",  c #2C2B2C",
"<  c #2A3724",
"1  c #283C20",
"2  c #2F362C",
"3  c #302F31",
"4  c #323232",
"5  c #3A373C",
"6  c #27470F",
"7  c #234413",
"8  c #264C13",
"9  c #294D13",
"0  c #2C431D",
"q  c #2A5413",
"w  c #335B13",
"e  c #315F19",
"r  c #34631B",
"t  c #38641C",
"y  c #36681C",
"u  c #3A6C1A",
"i  c #3E7619",
"p  c #3E7C1E",
"a  c #344227",
"s  c #384F2D",
"d  c #38522B",
"f  c #394633",
"g  c #3F413E",
"h  c #3F7D21",
"j  c #417B1F",
"k  c #444E3D",
"l  c #455D37",
"z  c #44543A",
"x  c #49573B",
"c  c #465B39",
"v  c #495C3A",
"b  c #615422",
"n  c #437F22",
"m  c #447D2A",
"M  c #4B7D2E",
"N  c #456336",
"B  c #49613A",
"V  c #477431",
"C  c #4B7231",
"Z  c #4C7D32",
"A  c #4E793B",
"S  c #7E713F",
"D  c #3E3C40",
"F  c #403F42",
"G  c #424242",
"H  c #494542",
"J  c #434D40",
"K  c #47454A",
"L  c #49484A",
"P  c #59524B",
"I  c #615751",
"U  c #4C6041",
"Y  c #786542",
"T  c #6B625B",
"R  c #786B53",
"E  c #687552",
"W  c #867360",
"Q  c #45831F",
"!  c #4B8B1E",
"~  c #4E911F",
"^  c #448524",
"/  c #4B8227",
"(  c #468C24",
")  c #4A8D25",
"_  c #478529",
"`  c #4A842D",
"'  c #478C28",
"]  c #4C8B29",
"[  c #508E25",
"{  c #51862C",
"}  c #479125",
"|  c #4D9325",
" . c #4E9A25",
".. c #4D9428",
"X. c #4E9929",
"o. c #519525",
"O. c #599724",
"+. c #539B25",
"@. c #599D25",
"#. c #539529",
"$. c #539D28",
"%. c #5E9C2E",
"&. c #4C8432",
"*. c #548431",
"=. c #528A39",
"-. c #5D9731",
";. c #75903D",
":. c #55A225",
">. c #5AA425",
",. c #5CAA25",
"<. c #55A228",
"1. c #59A628",
"2. c #5BAC2A",
"3. c #5FB326",
"4. c #5FB228",
"5. c #60A724",
"6. c #61AB24",
"7. c #61B327",
"8. c #B19D4E",
"9. c #B5A050",
"0. c #A18262",
"q. c #B4AF67",
"w. c #B2A36C",
"e. c #B6A96C",
"r. c #B2B266",
"t. c #DEB992",
"y. c #F2CCA4",
/* pixels */
") ,.:. . .' +.6.} <.@.@.,.@. .| o.3.o.X.X.( 5.o.| >.O.:.@.o.] M ",
"$.X.:.| | o.<.6.+.|  .} :.:.) ) | <.o.( ! o.>.5.( o.X.<.:.} ` &.",
"$.} 3.+.| | o.>.~  . .| X.<.$.X.} o.:.o.) | o.:.| | ~ ..<. .$.&.",
":.:.:.:.@.X.+.X.:.>.@.$.} :.:.+.>.@.:.:. .%.-.<.>.@.,.}  .<.$.&.",
":.>.X.+.o.o.:.X.o.@.~ >.+.+.+.r q ( Q q t q.r...>.o.<.+.$.+.| m ",
"} >. . .+.X.:.,. .+. .+.,.X.M 2 2 d % 6 *.R ;.+.o.X...,.@. .) ^ ",
"} <.>.| | #.$.,.o.X.) | :.| U K L 4 . r N < Q :.o.} ( @.:.| | ( ",
"o.o.$.X.o.) ..<.$.| | )  . .E T T P   y c - ) +.| X.o.X.:.) | | ",
">. .~ :.$.+.X.) | _ o.( ^  .e.t.t.0.. u c ; ! :.o.+.>.O.@. .o.:.",
">.,.|  .| $.:.( ] { &.M _ ' w.y.y.0.X e f r @.o. . .>.>.+.+.| +.",
" .>.|  .@.$.:.o./ =.A c s 1 P W W P + a 4 & w ! o.@.o.>. .@. .| ",
"'  . .( } ) X.] &.Z J F 3 + D D D D + , 3     w  .o.~ >. .X.o.( ",
"} +.>.} } ~ X.` N z G G , + D 3 4 D + > #     $ 6 j ) +.>.| } | ",
"@.o. . . . .o.V J D F G , + 3 . . 3 +             * @.X.>.@.>.>.",
":.+.X.@. .X.,.M G D G G , + ,     , +             $ o.>.>.>.$.>.",
" .:. .>.@. .{ z D G G G 3 + ,     , +               8 @.@.>.<.$.",
"( X.:.| $.] z F F F F D H S Y b b Y =               . p $.] | ( ",
"( X.>. .) ( z D G F F D I e.9.8.8.8.:                 e ' &.m ^ ",
">.| o.:.+.o.z G F F k D k x H H H k @ . & .           r ] / _ ( ",
">.>.@.:.o.X.v G k G z z V C F g k g @ % h % & . . o   u $.] _ o.",
"$.4...+.+.o.c V { l _ +.O.c D 1 [ c 5 ; ) Q  .6 w Q $ y @.@. . .",
"X.1.<.} +.] v #.o.| ( | :.c D - ^ v D ; ) ) >. .| | 7 i >.X.| +.",
":.+.2.} ) [ / :.| ( ) | +.v D ; [ v D ; ) ) o.<.) ( n ^ 2.| o.~ ",
"6.:.:.X.X.o.} ~ o.X.O.| ) v D 0 | z D ; ~ X.) @.o.@.@.) :. .:.:.",
"7.7. .+. . .,.~ o. . .5.O.z 5 0 >.B D 1 Q >.>.o. . .>.>.@.+. .o.",
"$.,.} } |  .,.@. .@.@.>.{ k 4 y >.Z G , i >.>.@. .@.>.@.o.>.|  .",
"} >.>.} } o.+.,.o.+.| @.` 5 , u | / 5 , i ..,.>.~ @.) :. .+. .~ ",
"X.o. .| ) o.} >.@.) ) +.t X . y $.t . . y .. .>.) | o.@.:.) } X.",
"3.+.,.o.}  .) +.@.~ O.p O     u ^ O     y  .) >. .@.o.X.>. .@.+.",
"3.:. .+.X. .>.O.:.@.~ ~ q q q ^ ! q 9 q p >.>.:.>.@.:.o.+. .o.:.",
":.,.| @.o.X.,.@.@.@.+.>.+.+.@.} :.$.+.+.) 1.@.O.@.O.@.+.o.:. . .",
"} :.:.o.X.} o.5.| o.%.@.>.+.o.| } :.O.X.} ) 6.+.| >.@.>.>.o.X.~ "
};
