/* XPM */
static char *result[] = {
/* columns rows colors chars-per-pixel */
"32 32 156 2 ",
"   c #5E3916",
".  c #643916",
"X  c #6A3D17",
"o  c #643E18",
"O  c #234E17",
"+  c #204719",
"@  c #214C19",
"#  c #294A1A",
"$  c #3E4C16",
"%  c #255019",
"&  c #29531B",
"*  c #2A5919",
"=  c #355516",
"-  c #3B5916",
";  c #39541C",
":  c #395918",
">  c #2B621E",
",  c #32601B",
"<  c #326D1D",
"1  c #3D731E",
"2  c #1B5726",
"3  c #1C612C",
"4  c #1F6930",
"5  c #2B6423",
"6  c #2A6D25",
"7  c #2D672B",
"8  c #2C762F",
"9  c #2F7D2D",
"0  c #317121",
"q  c #3E7727",
"w  c #377926",
"e  c #327D2C",
"r  c #396D31",
"t  c #257937",
"y  c #2C7B35",
"u  c #257D3A",
"i  c #297F3A",
"p  c #347635",
"a  c #357B36",
"s  c #3B7C36",
"d  c #327E38",
"f  c #425017",
"g  c #47501B",
"h  c #4E5119",
"j  c #4A5818",
"k  c #5D5716",
"l  c #654A1E",
"z  c #6C491D",
"x  c #7B471A",
"c  c #7D481A",
"v  c #45651A",
"b  c #476819",
"n  c #467519",
"m  c #447C1E",
"M  c #527319",
"N  c #5F4F20",
"B  c #416A2E",
"V  c #4F6F2E",
"C  c #417325",
"Z  c #447E2B",
"A  c #487E2E",
"S  c #4C7632",
"D  c #6C6E2B",
"F  c #7A6A28",
"G  c #824A1B",
"H  c #894E1B",
"J  c #87571A",
"K  c #8E501C",
"L  c #9D551B",
"P  c #955C1F",
"I  c #A2591D",
"U  c #AC5D1D",
"Y  c #8A6C1F",
"T  c #93731F",
"R  c #8D6423",
"E  c #946322",
"W  c #9F6120",
"Q  c #807620",
"!  c #867C22",
"~  c #A16120",
"^  c #3E8324",
"/  c #348429",
"(  c #26813B",
")  c #2A843A",
"_  c #2D8C3A",
"`  c #338439",
"'  c #308F3A",
"]  c #389A37",
"[  c #32933A",
"{  c #369A3A",
"}  c #399E39",
"|  c #3DA539",
" . c #3FAA39",
".. c #43811E",
"X. c #448424",
"o. c #468B24",
"O. c #4A8D25",
"+. c #49832B",
"@. c #478C28",
"#. c #4B8C29",
"$. c #578520",
"%. c #5F8E23",
"&. c #528F2F",
"*. c #4C9425",
"=. c #4E9A25",
"-. c #42972A",
";. c #4C9328",
":. c #40992D",
">. c #4C9B29",
",. c #519525",
"<. c #599724",
"1. c #549C25",
"2. c #599C25",
"3. c #529629",
"4. c #539D29",
"5. c #4C8533",
"6. c #539832",
"7. c #619625",
"8. c #46A22E",
"9. c #4DA22B",
"0. c #55A225",
"q. c #5AA425",
"w. c #57A825",
"e. c #5BAA25",
"r. c #54A329",
"t. c #59A52A",
"y. c #5BAB2A",
"u. c #5FB326",
"i. c #57B22F",
"p. c #5FB228",
"a. c #41AC38",
"s. c #57A130",
"d. c #5CA832",
"f. c #5BA238",
"g. c #4CB534",
"h. c #4BBB37",
"j. c #46B338",
"k. c #48B638",
"l. c #4CBB38",
"z. c #54BE3B",
"x. c #61AB24",
"c. c #61B327",
"v. c #66B03F",
"b. c #67B83C",
"n. c #5BC13E",
"m. c #66BF42",
"M. c #6CBD43",
"N. c #5FC240",
"B. c #63C442",
"V. c #6DC545",
"C. c #6FC847",
"Z. c #72C545",
"A. c #75CA47",
"S. c #72C648",
"D. c #75CA4A",
"F. c #79CC4C",
/* pixels */
"O.w.1.=.=.@.4.x.*.1.2.<.e.0.=.*.,.p.,.*.*.#.e.,.O.q.1.q.2.*.#.A ",
"4.=.0.=.*.,.0.x.1.O.=.*.0.r.#.*.;.r.1.O.*.*.q.x.o.,.*.1.r.*.+.5.",
"r.*.w.2.*.*.3.0.1.*.,.*.=.4.t.s.6.t.2.=.O.*.3.0.*.*.,.*.r.1.4.5.",
"0.0.0.0.4.1.1.*.q.0.0.4.=.y.b.D.F.v.O.e.r.t.3.1.q.2.w.*.=.4.4.5.",
"0.w.*.0.<.=.0.=.1.4.3.Z.A.A.A.A.F.S.V.A.V.A.&.*.q.*.q.4.2.4.*.Z ",
";.0.=.=.1.*.0.y.9.h.V.D.F.D.D.A.V.z.n.B.D.D.M.V.V.8.X.e.1.=.O.X.",
"*.4.0.*.*.,.4.i.l.n.D.F.D.N.n.n.S.B.n.n.z.V.B.B.V.g.:.O.e.=.*.o.",
",.1.4.=.,.O.d.M.B.V.D.C.N.n.k.n.n.n.h.h.l.n.N.C.A.B.m.f.*...O.,.",
"0.,.,.0.1.d.V.F.S.B.B.n.h.h.h.h.h.h.h.h.h.h.B.D.V.B.B.n.6.O.<.0.",
"0.q.*.=.9.M.V.B.n.h.h.h.h.n.h.h.l.l.l.l.h.h.n.V.n.h.l.n.C.C o.1.",
"1.w.*.=.g.B.n.h.h.h.l.l.l.l.l.h.l.l.h.h.h.h.h.h.h.h.l.V.S.1 *.*.",
"O.=.=.-.g.l.l.h.l.k.l.l.l.l.l.l.l.h.l.j.j.k.h.h.h.h.h.l.m.q *.o.",
"O.1.0.h.h.h.h.l.| [ k.h.h.h.l.l.h.h.j._ _ a.h.h.l.l.h.h.l.g.w X.",
"2.*.=.h.l.h.h.| ) _ k.h.l.h.h.l.l.l.j._ | h.h.l.a.[ k.h.l.k.< ,.",
"2.0.>.g.l.l.h.| ( ) [ ' [ a.l.a._ [ _ ) a.h.h.a._ ( [ k.h.0 , 2.",
"=.w.g.h.l.h.h.k.| | | ( u _ { _ _ | |  .k.h.a._ u ) | k.k.< 1.4.",
"@.r.-.] | j.h.l.h.k.} ) ( ( [ [ [ l.h.h.| } _ u ) | h.l.h.> O.O.",
"o.;.0.e t { | j.h.k.[ ( S a [ [ [ h.h.l.[ ( ( _ | h.| | / & C X.",
"0.*.1.,.9 t ( [ a.j.k.` R D A s _ a.a.a.s r y [ a.| ) t @ C X.@.",
"w.w.1.0.o.8 t ( ( '  ._ F E W F s s a p N l B ( ( ( ( 4 % #.+.=.",
"4.y.;.4.2.O.9 u t y ` d s s F U ~ P z l l B i t t u 4 O m 1.,.1.",
"3.r.w.*.,.O.o.e 3 ; R E E E ~ U U L z r p i u 2 5 4 + ..q.1.*.=.",
"r.1.w.*.O.*.;.>.6 7 g V P U U U L x o # t ( 2 * X.> 1 3.e.*.1.*.",
"x.r.0.,.=.*.*.*.=.* 1 w h k J U U K . = ^ 5 & =.1.2.1.*.0.=.2.1.",
"u.c.=.=.=.=.w.1.=.,.,.x.,.=.Q U I H . = *.2.4.1.=.*.q.7.q.1.*.1.",
"1.e.*.*.*.=.e.<.,.1.1.w.1.1.! U I G . - =.q.q.<.=.<.w.2.1.0.O.=.",
"*.0.0.o.*.*.1.e.1.1.*.<.w.%.T U U L X f ,.*.e.w.=.<.,.0.*.1.1.=.",
"=.*.1.*.o.,.*.0.<.O.O.<.7.T U U U U c X j #.1.q.O.*.*.1.0.O.o.=.",
"e.1.w.<.*.*.*.1.2.=.,.,.Y L L L L L H X   $ o.q.,.1.,.*.q.=.1.2.",
"c.w.=.4.*.=.q.1.q.2.,.0.$.b v v M b v v : n 2.0.q.1.0.2.1.=.=.0.",
"0.e.*.1.*.*.q.2.1.<.<.q.*.4.2.*.0.3.=.2.o.w.2.1.q.7.q.,.1.2.,.=.",
"*.0.0.,.=.*.,.x.*.1.2.2.w.2.=.*.*.0.1.*.*.@.x.1.*.q.<.0.0.,.=.=."
};
