/* XPM */
static char *result[] = {
/* columns rows colors chars-per-pixel */
"64 64 30 1 ",
"  c #003200",
". c #0D3E01",
"X c #005F00",
"o c #066201",
"O c #2A7004",
"+ c #2A7104",
"@ c #4F7C07",
"# c #4F7F07",
"$ c #008C00",
"% c #068F01",
"& c #0C8A01",
"* c #0C9101",
"= c #0D9101",
"- c #189602",
"; c #199602",
": c #558207",
"> c #4FA607",
", c #4FAC07",
"< c #55AF07",
"1 c #5BB208",
"2 c #7FC10B",
"3 c #91BB0D",
"4 c #9DC60E",
"5 c #91C80D",
"6 c #92C80D",
"7 c #9DCD0E",
"8 c #9ECD0E",
"9 c #A4CF0E",
"0 c #AAD20F",
"q c None",
/* pixels */
"qqqqqqqqqqqqqqqqqqqqqqqqqqqqqqqqqqqqqqqqqqqqqqqqqqqqqqqqqqqqqqqq",
"qqqqqqqqqqqqqqqqqqqqqqqqqqqqqqqqqqqqqqqqqqqqqqqqqqqqqqqqqqqqqqqq",
"qqqqqqqqqqqqqqqqqqqqqqqqqqqqqqqqqqqqqqqqqqqqqqqqqqqqqqqqqqqqqqqq",
"qqqqqqqqqqqqqqqqqqqqqqqqqqqqqqqqqqqqqqqqqqqqqqqqqqqqqqqqqqqqqqqq",
"qqqqqqqqqqqqqqqqqqqqqqqqqqqqqqqqqqqqqqqqqqqqqqqqqqqqqqqqqqqqqqqq",
"qqqqqqqqqqqqqqqqqqqqqqqqqqqqqqqqqqqqqqqqqqqqqqqqqqqqqqqqqqqqqqqq",
"qqqqqqqqqqqqqqqqqqqqqqqqqqqqqqqqqqqqqqqqqqqqqqqqqqqqqqqqqqqqqqqq",
"qqqqqqqqqqqqqqqqqqqqqqqqqqqqqqqqqqqqqqqqqqqqqqqqqqqqqqqqqqqqqqqq",
"qqqqqqqqqqqqqqqqqqqqqqqqqqqqqqqqqqqqqqqqqqqqqqqqqqqqqqqqqqqqqqqq",
"qqqqqqqqqqqqqqqqqqqqqqqqqqqqqqqqqqqqqqqqqqqqqqqqqqqqqqqqqqqqqqqq",
"qqqqqqqqqqqqqqqqqqqqqqqqqqqqqqqqqqqqqqqqqqqqqqqqqqqqqqqqqqqqqqqq",
"qqqqqqqqqqqqqqqqqqqqqqqqqqqqqqqqqqqqqqqqqqqqqqqqqqqqqqqqqqqqqqqq",
"qqqqqqqqqqqq                                        qqqqqqqqqqqq",
"qqqqqqqqqqqq 34444444444444444444444444444444444443 qqqqqqqqqqqq",
"qqqqqqqqqqqq ><<<<<20000000<<<<<<<<<<<<<<<<<<<<<<<> qqqqqqqqqqqq",
"qqqqqqqqqqqq &===$$<0000000$*=*$$$$$$$$$$$$*%$=$*=& qqqqqqqqqqqq",
"qqqqqqqqqqqq 4000$$<0000000$707$$$$$$$$$$$$7<=0$704 qqqqqqqqqqqq",
"qqqqqqqqqqqq 4000$$<0000000$707$$$$$$$$$$$$$<7$0004 qqqqqqqqqqqq",
"qqqqqqqqqqqq 4000$$<0000000$707$$$$$$$$$$$$5<-7=804 qqqqqqqqqqqq",
"qqqqqqqqqqqq 4000$$<0000000$707$$$$$$$$$$$$,<<<<904 qqqqqqqqqqqq",
"qqqqqqqqqqqq 4000$$<0000000$707$$$$$$$$$$$$*<6=7004 qqqqqqqqqqqq",
"qqqqqqqqqqqq 4000$$<0000000$707$$$$$$$$$$$$7<=0$704 qqqqqqqqqqqq",
"qqqqqqqqqqqq 4000$$<0000000$707$$$$$$$$$$$$$<7$0004 qqqqqqqqqqqq",
"qqqqqqqqqqqq 4000$$<0000000$707$$$$$$$$$$$$5<-7=804 qqqqqqqqqqqq",
"qqqqqqqqqqqq 4000$$<0000000$707$$$$$$$$$$$$,<<<<904 qqqqqqqqqqqq",
"qqqqqqqqqqqq 4000$$<0000000$707$$$$$$$$$$$$*<6=7004 qqqqqqqqqqqq",
"qqqqqqqqqqqq 4000$$<0000000$707$$$$$$$$$$$$7<=0$704 qqqqqqqqqqqq",
"qqqqqqqqqqqq 4000$$<0000000$707$$$$$$$$$$$$$<7$0004 qqqqqqqqqqqq",
"qqqqqqqqqqqq 4000$$<0000000$707$$$$$$$$$$$$5<-7=804 qqqqqqqqqqqq",
"qqqqqqqqqqqq @:::XXO:::::::X#:#XXXXXXXXXXXX#+o:X#:@ qqqqqqqqqqqq",
"qqqqqqqqqqqq                                        qqqqqqqqqqqq",
"qqqqqqqqqqqqqq                                    qqqqqqqqqqqqqq",
"qqqqqqqqqqqqqq .000<$$000000=<00$$$$$$$$$$0=<000. qqqqqqqqqqqqqq",
"qqqqqqqqqqqqqq .000<$$000000=<00$$$$$$$$$$=6<;00. qqqqqqqqqqqqqq",
"qqqqqqqqqqqqqq .000<$$000000=<00$$$$$$$$$$<<<100. qqqqqqqqqqqqqq",
"qqqqqqqqqqqqqq .000<$$000000=<00$$$$$$$$$$7-<800. qqqqqqqqqqqqqq",
"qqqqqqqqqqqqqq .000<$$000000=<00$$$$$$$$$$$7<=00. qqqqqqqqqqqqqq",
"qqqqqqqqqqqqqq .000<$$000000=<00$$$$$$$$$$0=<000. qqqqqqqqqqqqqq",
"qqqqqqqqqqqqqq .000<$$000000=<00$$$$$$$$$$=6<;00. qqqqqqqqqqqqqq",
"qqqqqqqqqqqqqq .000<$$000000=<00$$$$$$$$$$<<<100. qqqqqqqqqqqqqq",
"qqqqqqqqqqqqqq .000<$$000000=<00$$$$$$$$$$7-<800. qqqqqqqqqqqqqq",
"qqqqqqqqqqqqqq .000<$$000000=<00$$$$$$$$$$$7<=00. qqqqqqqqqqqqqq",
"qqqqqqqqqqqqqq .000<$$000000=<00$$$$$$$$$$0=<000. qqqqqqqqqqqqqq",
"qqqqqqqqqqqqqq .000<$$000000=<00$$$$$$$$$$=6<;00. qqqqqqqqqqqqqq",
"qqqqqqqqqqqqqq .000<$$000000=<00$$$$$$$$$$<<<100. qqqqqqqqqqqqqq",
"qqqqqqqqqqqqqq .000<$$000000=<00$$$$$$$$$$7-<800. qqqqqqqqqqqqqq",
"qqqqqqqqqqqqqq .000<$$000000=<00$$$$$$$$$$$7<=00. qqqqqqqqqqqqqq",
"qqqqqqqqqqqqqq .000<$$000000=<00$$$$$$$$$$0=<000. qqqqqqqqqqqqqq",
"qqqqqqqqqqqqqq .000<$$000000=<00$$$$$$$$$$=6<;00. qqqqqqqqqqqqqq",
"qqqqqqqqqqqqqq .000<$$000000=<00$$$$$$$$$$<<<100. qqqqqqqqqqqqqq",
"qqqqqqqqqqqqqq .000<$$000000=<00$$$$$$$$$$7-<800. qqqqqqqqqqqqqq",
"qqqqqqqqqqqqqq .000<$$000000=<00$$$$$$$$$$$7<=00. qqqqqqqqqqqqqq",
"qqqqqqqqqqqqqqqqqqqqqqqqqqqqqqqqqqqqqqqqqqqqqqqqqqqqqqqqqqqqqqqq",
"qqqqqqqqqqqqqqqqqqqqqqqqqqqqqqqqqqqqqqqqqqqqqqqqqqqqqqqqqqqqqqqq",
"qqqqqqqqqqqqqqqqqqqqqqqqqqqqqqqqqqqqqqqqqqqqqqqqqqqqqqqqqqqqqqqq",
"qqqqqqqqqqqqqqqqqqqqqqqqqqqqqqqqqqqqqqqqqqqqqqqqqqqqqqqqqqqqqqqq",
"qqqqqqqqqqqqqqqqqqqqqqqqqqqqqqqqqqqqqqqqqqqqqqqqqqqqqqqqqqqqqqqq",
"qqqqqqqqqqqqqqqqqqqqqqqqqqqqqqqqqqqqqqqqqqqqqqqqqqqqqqqqqqqqqqqq",
"qqqqqqqqqqqqqqqqqqqqqqqqqqqqqqqqqqqqqqqqqqqqqqqqqqqqqqqqqqqqqqqq",
"qqqqqqqqqqqqqqqqqqqqqqqqqqqqqqqqqqqqqqqqqqqqqqqqqqqqqqqqqqqqqqqq",
"qqqqqqqqqqqqqqqqqqqqqqqqqqqqqqqqqqqqqqqqqqqqqqqqqqqqqqqqqqqqqqqq",
"qqqqqqqqqqqqqqqqqqqqqqqqqqqqqqqqqqqqqqqqqqqqqqqqqqqqqqqqqqqqqqqq",
"qqqqqqqqqqqqqqqqqqqqqqqqqqqqqqqqqqqqqqqqqqqqqqqqqqqqqqqqqqqqqqqq",
"qqqqqqqqqqqqqqqqqqqqqqqqqqqqqqqqqqqqqqqqqqqqqqqqqqqqqqqqqqqqqqqq"
};
