/* XPM */
static char *_fcbcdf733e7413dc2a56bb5750af715M5WhKzxs6kKLWPSS[] = {
/* columns rows colors chars-per-pixel */
"16 16 230 2 ",
"   c #509B25",
".  c #519C25",
"X  c #4E9426",
"o  c #57A026",
"O  c #519925",
"+  c #529825",
"@  c #54A026",
"#  c #4D9526",
"$  c #539C26",
"%  c #4F9724",
"&  c #4D9225",
"*  c #569D24",
"=  c #4F9624",
"-  c #549B25",
";  c #519826",
":  c #4B872D",
">  c #529F25",
",  c #549F24",
"<  c #519825",
"1  c #529B25",
"2  c #529C24",
"3  c #529A28",
"4  c #56A32C",
"5  c #62B037",
"6  c #61AD37",
"7  c #579F2A",
"8  c #549D2A",
"9  c #539B26",
"0  c #519A23",
"q  c #519A26",
"w  c #519C26",
"e  c #4E902C",
"r  c #519B25",
"t  c #539F26",
"y  c #54A72B",
"u  c #68B93D",
"i  c #71C545",
"p  c #73C948",
"a  c #6AC445",
"s  c #66C040",
"d  c #6EC143",
"f  c #60AE38",
"g  c #55A72E",
"h  c #509A25",
"j  c #539B25",
"k  c #498B26",
"l  c #4F9B25",
"z  c #4F9626",
"x  c #5CAD33",
"c  c #60C03E",
"v  c #70C848",
"b  c #62C341",
"n  c #59C03D",
"m  c #5DC13F",
"M  c #51BD3A",
"N  c #5AC03E",
"B  c #68C644",
"V  c #62BF40",
"C  c #53A432",
"Z  c #4C9023",
"A  c #559E24",
"S  c #4E9A25",
"D  c #58A931",
"F  c #69C143",
"G  c #5FC240",
"H  c #56BF3C",
"J  c #4EBC38",
"K  c #4BBB37",
"L  c #4CBB38",
"P  c #4CBB37",
"I  c #61C341",
"U  c #5BBD3E",
"Y  c #539A30",
"T  c #4E9222",
"R  c #509925",
"E  c #4C9D28",
"W  c #51B737",
"Q  c #52BE3A",
"!  c #49B737",
"~  c #4ABA37",
"^  c #4BBC37",
"/  c #4CBC37",
"(  c #48B637",
")  c #47B537",
"_  c #4DBB37",
"`  c #55C03C",
"'  c #54A134",
"]  c #478A24",
"[  c #509724",
"{  c #4EAA2D",
"}  c #45B337",
"|  c #369939",
" . c #44B038",
".. c #4AB937",
"X. c #4BBA37",
"o. c #3AA038",
"O. c #3EA738",
"+. c #42AC38",
"@. c #48B638",
"#. c #47AB33",
"$. c #418523",
"%. c #529E25",
"&. c #4CAD31",
"*. c #45B137",
"=. c #329439",
"-. c #339739",
";. c #369A39",
":. c #399F38",
">. c #45B237",
",. c #3DA438",
"<. c #2E8C39",
"1. c #41AC38",
"2. c #40982B",
"3. c #468722",
"4. c #4D9626",
"5. c #43972D",
"6. c #389A37",
"7. c #46B437",
"8. c #359138",
"9. c #377D37",
"0. c #308D39",
"q. c #3CA538",
"w. c #47B637",
"e. c #369838",
"r. c #2C8939",
"t. c #389E39",
"y. c #41AA37",
"u. c #388127",
"i. c #438024",
"p. c #509725",
"a. c #36832D",
"s. c #2B8738",
"d. c #369C39",
"f. c #3D9237",
"g. c #6A6E2B",
"h. c #62732D",
"j. c #468934",
"k. c #448A32",
"l. c #47682B",
"z. c #327D36",
"x. c #31933A",
"c. c #277832",
"v. c #366D22",
"b. c #488825",
"n. c #55A228",
"m. c #529C26",
"M. c #4B9025",
"N. c #33802D",
"B. c #2D6F2E",
"V. c #57712D",
"C. c #746B29",
"Z. c #996221",
"A. c #915B1F",
"S. c #5A5423",
"D. c #3E682E",
"F. c #277131",
"G. c #246D2E",
"H. c #2D6A24",
"J. c #4B8E23",
"K. c #4F9824",
"L. c #58A526",
"P. c #4E9325",
"I. c #4B9225",
"U. c #397523",
"Y. c #4E6B22",
"T. c #78621D",
"R. c #A05D1C",
"E. c #95511B",
"W. c #4E4E1B",
"Q. c #2D752A",
"!. c #337122",
"~. c #428221",
"^. c #4B8D23",
"/. c #539D26",
"(. c #509824",
"). c #58A725",
"_. c #4E9925",
"`. c #4E9824",
"'. c #569E24",
"]. c #4F9623",
"[. c #519823",
"{. c #579223",
"}. c #926C1E",
"|. c #95501B",
" X c #535018",
".X c #4B9023",
"XX c #549A23",
"oX c #539A24",
"OX c #579F25",
"+X c #4F9823",
"@X c #519B24",
"#X c #4E9724",
"$X c #549D25",
"%X c #529824",
"&X c #539625",
"*X c #6F8922",
"=X c #A1641D",
"-X c #A1551C",
";X c #694A18",
":X c #4F7B21",
">X c #549E24",
",X c #519624",
"<X c #539925",
"1X c #4D9625",
"2X c #57A525",
"3X c #519C24",
"4X c #4D9624",
"5X c #559523",
"6X c #6D761E",
"7X c #75641B",
"8X c #75661B",
"9X c #615A1A",
"0X c #4A641A",
"qX c #539723",
"wX c #569C25",
"eX c #539A25",
"rX c #529B24",
"tX c #529A25",
"yX c #54A025",
"uX c #4E9725",
"iX c #559A24",
"pX c #579C25",
"aX c #539924",
"sX c #4D9123",
"dX c #4E9524",
"fX c #4D9224",
"gX c #4C9223",
"hX c #579E25",
"jX c #579D25",
"kX c white",
/* pixels */
"  . X o O + @ # $ % & * = - ; : ",
"> , < 1 2 3 4 5 6 7 8 9 0 q w e ",
"> r O t y u i p a s d f g h j k ",
"O l z x c v b n m M N B V C z Z ",
"A S D F G H J K L K P I G U Y T ",
"R E W Q ! ~ ^ / / ( ) _ / ` ' ] ",
"[ { K } |  ...X.( o.O...+.@.#.$.",
"%.&.K *.| =.-.o.;.:.>.,.<.1.2.3.",
"4.5.6. .7.8.9.0.q.w.e.r.t.y.u.i.",
"t p.a.s.d.f.g.h.j.k.l.z.x.c.v.b.",
"n.m.M.N.B.V.C.Z.A.S.D.F.G.H.J.K.",
"L.w P.I.U.Y.T.R.E.W.Q.!.~.^./.(.",
")._.`.'.].[.{.}.|. X.XXXoXOX- +X",
"@X#XI.$X%X&X*X=X-X;X:X>X,X<XR 1X",
"2X3X4Xj XX5X6X7X8X9X0XqXwXeXrXtX",
"yX1 uX'.iXpXaXsXdXfXgXhXpXjXj K."
};
